<svg width="252" height="218" viewBox="0 0 252 218" fill="none" xmlns="http://www.w3.org/2000/svg">
<path d="M65.58 129.72C65.78 130.773 66.3933 131.3 67.42 131.3C68.1267 131.3 68.6267 130.987 68.92 130.36C69.2133 129.733 69.36 128.713 69.36 127.3C69.0667 127.713 68.6667 128.033 68.16 128.26C67.6533 128.487 67.0867 128.6 66.46 128.6C65.6067 128.6 64.8467 128.427 64.18 128.08C63.5133 127.72 62.9867 127.193 62.6 126.5C62.2267 125.793 62.04 124.94 62.04 123.94C62.04 122.953 62.24 122.093 62.64 121.36C63.0533 120.627 63.6333 120.06 64.38 119.66C65.14 119.26 66.0333 119.06 67.06 119.06C69.0333 119.06 70.4133 119.673 71.2 120.9C71.9867 122.127 72.38 123.933 72.38 126.32C72.38 128.053 72.22 129.487 71.9 130.62C71.5933 131.74 71.0667 132.593 70.32 133.18C69.5867 133.767 68.58 134.06 67.3 134.06C66.2867 134.06 65.42 133.86 64.7 133.46C63.9933 133.06 63.4467 132.533 63.06 131.88C62.6867 131.227 62.4733 130.507 62.42 129.72H65.58ZM67.24 125.9C67.8 125.9 68.2467 125.733 68.58 125.4C68.9133 125.053 69.08 124.587 69.08 124C69.08 123.36 68.9067 122.867 68.56 122.52C68.2133 122.173 67.7467 122 67.16 122C66.5733 122 66.1067 122.18 65.76 122.54C65.4267 122.887 65.26 123.367 65.26 123.98C65.26 124.553 65.4267 125.02 65.76 125.38C66.1067 125.727 66.6 125.9 67.24 125.9ZM77.8847 129.72C78.0847 130.773 78.698 131.3 79.7247 131.3C80.4314 131.3 80.9314 130.987 81.2247 130.36C81.518 129.733 81.6647 128.713 81.6647 127.3C81.3714 127.713 80.9714 128.033 80.4647 128.26C79.958 128.487 79.3914 128.6 78.7647 128.6C77.9114 128.6 77.1514 128.427 76.4847 128.08C75.818 127.72 75.2914 127.193 74.9047 126.5C74.5314 125.793 74.3447 124.94 74.3447 123.94C74.3447 122.953 74.5447 122.093 74.9447 121.36C75.358 120.627 75.938 120.06 76.6847 119.66C77.4447 119.26 78.338 119.06 79.3647 119.06C81.338 119.06 82.718 119.673 83.5047 120.9C84.2914 122.127 84.6847 123.933 84.6847 126.32C84.6847 128.053 84.5247 129.487 84.2047 130.62C83.898 131.74 83.3714 132.593 82.6247 133.18C81.8914 133.767 80.8847 134.06 79.6047 134.06C78.5914 134.06 77.7247 133.86 77.0047 133.46C76.298 133.06 75.7514 132.533 75.3647 131.88C74.9914 131.227 74.778 130.507 74.7247 129.72H77.8847ZM79.5447 125.9C80.1047 125.9 80.5514 125.733 80.8847 125.4C81.218 125.053 81.3847 124.587 81.3847 124C81.3847 123.36 81.2114 122.867 80.8647 122.52C80.518 122.173 80.0514 122 79.4647 122C78.878 122 78.4114 122.18 78.0647 122.54C77.7314 122.887 77.5647 123.367 77.5647 123.98C77.5647 124.553 77.7314 125.02 78.0647 125.38C78.4114 125.727 78.9047 125.9 79.5447 125.9ZM88.4494 134.16C87.8494 134.16 87.356 133.987 86.9694 133.64C86.596 133.28 86.4094 132.84 86.4094 132.32C86.4094 131.787 86.596 131.34 86.9694 130.98C87.356 130.62 87.8494 130.44 88.4494 130.44C89.036 130.44 89.516 130.62 89.8894 130.98C90.276 131.34 90.4694 131.787 90.4694 132.32C90.4694 132.84 90.276 133.28 89.8894 133.64C89.516 133.987 89.036 134.16 88.4494 134.16ZM95.8339 129.72C96.0339 130.773 96.6472 131.3 97.6739 131.3C98.3806 131.3 98.8806 130.987 99.1739 130.36C99.4672 129.733 99.6139 128.713 99.6139 127.3C99.3206 127.713 98.9206 128.033 98.4139 128.26C97.9072 128.487 97.3406 128.6 96.7139 128.6C95.8606 128.6 95.1006 128.427 94.4339 128.08C93.7672 127.72 93.2406 127.193 92.8539 126.5C92.4806 125.793 92.2939 124.94 92.2939 123.94C92.2939 122.953 92.4939 122.093 92.8939 121.36C93.3072 120.627 93.8872 120.06 94.6339 119.66C95.3939 119.26 96.2872 119.06 97.3139 119.06C99.2872 119.06 100.667 119.673 101.454 120.9C102.241 122.127 102.634 123.933 102.634 126.32C102.634 128.053 102.474 129.487 102.154 130.62C101.847 131.74 101.321 132.593 100.574 133.18C99.8406 133.767 98.8339 134.06 97.5539 134.06C96.5406 134.06 95.6739 133.86 94.9539 133.46C94.2472 133.06 93.7006 132.533 93.3139 131.88C92.9406 131.227 92.7272 130.507 92.6739 129.72H95.8339ZM97.4939 125.9C98.0539 125.9 98.5006 125.733 98.8339 125.4C99.1672 125.053 99.3339 124.587 99.3339 124C99.3339 123.36 99.1606 122.867 98.8139 122.52C98.4672 122.173 98.0006 122 97.4139 122C96.8272 122 96.3606 122.18 96.0139 122.54C95.6806 122.887 95.5139 123.367 95.5139 123.98C95.5139 124.553 95.6806 125.02 96.0139 125.38C96.3606 125.727 96.8539 125.9 97.4939 125.9ZM104.179 123.08C104.179 122 104.485 121.167 105.099 120.58C105.725 119.993 106.532 119.7 107.519 119.7C108.505 119.7 109.305 119.993 109.919 120.58C110.532 121.167 110.839 122 110.839 123.08C110.839 124.16 110.532 124.993 109.919 125.58C109.305 126.167 108.505 126.46 107.519 126.46C106.532 126.46 105.725 126.167 105.099 125.58C104.485 124.993 104.179 124.16 104.179 123.08ZM117.759 119.92L110.059 134H106.759L114.459 119.92H117.759ZM107.499 121.7C106.859 121.7 106.539 122.16 106.539 123.08C106.539 123.987 106.859 124.44 107.499 124.44C107.805 124.44 108.045 124.327 108.219 124.1C108.392 123.873 108.479 123.533 108.479 123.08C108.479 122.16 108.152 121.7 107.499 121.7ZM113.699 130.84C113.699 129.76 114.005 128.927 114.619 128.34C115.232 127.753 116.032 127.46 117.019 127.46C118.005 127.46 118.805 127.753 119.419 128.34C120.032 128.927 120.339 129.76 120.339 130.84C120.339 131.92 120.032 132.753 119.419 133.34C118.805 133.927 118.005 134.22 117.019 134.22C116.032 134.22 115.232 133.927 114.619 133.34C114.005 132.753 113.699 131.92 113.699 130.84ZM116.999 129.46C116.692 129.46 116.452 129.573 116.279 129.8C116.119 130.027 116.039 130.373 116.039 130.84C116.039 131.747 116.359 132.2 116.999 132.2C117.305 132.2 117.545 132.087 117.719 131.86C117.892 131.633 117.979 131.293 117.979 130.84C117.979 130.387 117.892 130.047 117.719 129.82C117.545 129.58 117.305 129.46 116.999 129.46ZM129.799 119.96V128.36C129.799 129.2 130.006 129.847 130.419 130.3C130.833 130.753 131.439 130.98 132.239 130.98C133.039 130.98 133.653 130.753 134.079 130.3C134.506 129.847 134.719 129.2 134.719 128.36V119.96H138.139V128.34C138.139 129.593 137.873 130.653 137.339 131.52C136.806 132.387 136.086 133.04 135.179 133.48C134.286 133.92 133.286 134.14 132.179 134.14C131.073 134.14 130.079 133.927 129.199 133.5C128.333 133.06 127.646 132.407 127.139 131.54C126.633 130.66 126.379 129.593 126.379 128.34V119.96H129.799ZM143.961 124.42C144.294 123.9 144.754 123.48 145.341 123.16C145.927 122.84 146.614 122.68 147.401 122.68C148.321 122.68 149.154 122.913 149.901 123.38C150.647 123.847 151.234 124.513 151.661 125.38C152.101 126.247 152.321 127.253 152.321 128.4C152.321 129.547 152.101 130.56 151.661 131.44C151.234 132.307 150.647 132.98 149.901 133.46C149.154 133.927 148.321 134.16 147.401 134.16C146.627 134.16 145.941 134 145.341 133.68C144.754 133.36 144.294 132.947 143.961 132.44V139.32H140.541V122.84H143.961V124.42ZM148.841 128.4C148.841 127.547 148.601 126.88 148.121 126.4C147.654 125.907 147.074 125.66 146.381 125.66C145.701 125.66 145.121 125.907 144.641 126.4C144.174 126.893 143.941 127.567 143.941 128.42C143.941 129.273 144.174 129.947 144.641 130.44C145.121 130.933 145.701 131.18 146.381 131.18C147.061 131.18 147.641 130.933 148.121 130.44C148.601 129.933 148.841 129.253 148.841 128.4ZM160.335 131.1V134H158.595C157.355 134 156.388 133.7 155.695 133.1C155.002 132.487 154.655 131.493 154.655 130.12V125.68H153.295V122.84H154.655V120.12H158.075V122.84H160.315V125.68H158.075V130.16C158.075 130.493 158.155 130.733 158.315 130.88C158.475 131.027 158.742 131.1 159.115 131.1H160.335ZM163.96 121.68C163.36 121.68 162.867 121.507 162.48 121.16C162.107 120.8 161.92 120.36 161.92 119.84C161.92 119.307 162.107 118.867 162.48 118.52C162.867 118.16 163.36 117.98 163.96 117.98C164.547 117.98 165.027 118.16 165.4 118.52C165.787 118.867 165.98 119.307 165.98 119.84C165.98 120.36 165.787 120.8 165.4 121.16C165.027 121.507 164.547 121.68 163.96 121.68ZM165.66 122.84V134H162.24V122.84H165.66ZM182.378 122.72C183.765 122.72 184.865 123.14 185.678 123.98C186.505 124.82 186.918 125.987 186.918 127.48V134H183.518V127.94C183.518 127.22 183.325 126.667 182.938 126.28C182.565 125.88 182.045 125.68 181.378 125.68C180.712 125.68 180.185 125.88 179.798 126.28C179.425 126.667 179.238 127.22 179.238 127.94V134H175.838V127.94C175.838 127.22 175.645 126.667 175.258 126.28C174.885 125.88 174.365 125.68 173.698 125.68C173.032 125.68 172.505 125.88 172.118 126.28C171.745 126.667 171.558 127.22 171.558 127.94V134H168.138V122.84H171.558V124.24C171.905 123.773 172.358 123.407 172.918 123.14C173.478 122.86 174.112 122.72 174.818 122.72C175.658 122.72 176.405 122.9 177.058 123.26C177.725 123.62 178.245 124.133 178.618 124.8C179.005 124.187 179.532 123.687 180.198 123.3C180.865 122.913 181.592 122.72 182.378 122.72ZM199.83 128.24C199.83 128.56 199.81 128.893 199.77 129.24H192.03C192.084 129.933 192.304 130.467 192.69 130.84C193.09 131.2 193.577 131.38 194.15 131.38C195.004 131.38 195.597 131.02 195.93 130.3H199.57C199.384 131.033 199.044 131.693 198.55 132.28C198.07 132.867 197.464 133.327 196.73 133.66C195.997 133.993 195.177 134.16 194.27 134.16C193.177 134.16 192.204 133.927 191.35 133.46C190.497 132.993 189.83 132.327 189.35 131.46C188.87 130.593 188.63 129.58 188.63 128.42C188.63 127.26 188.864 126.247 189.33 125.38C189.81 124.513 190.477 123.847 191.33 123.38C192.184 122.913 193.164 122.68 194.27 122.68C195.35 122.68 196.31 122.907 197.15 123.36C197.99 123.813 198.644 124.46 199.11 125.3C199.59 126.14 199.83 127.12 199.83 128.24ZM196.33 127.34C196.33 126.753 196.13 126.287 195.73 125.94C195.33 125.593 194.83 125.42 194.23 125.42C193.657 125.42 193.17 125.587 192.77 125.92C192.384 126.253 192.144 126.727 192.05 127.34H196.33Z" fill="black"/>
<path d="M14.8098 150.612L12.4338 159H11.4978L9.38583 151.848L7.22583 159L6.31383 159.012L3.98583 150.612H4.88583L6.80583 157.968L8.95383 150.612H9.88983L11.9778 157.968L13.9098 150.612H14.8098ZM22.0228 155.388C22.0228 155.676 22.0148 155.896 21.9988 156.048H16.5628C16.5868 156.544 16.7068 156.968 16.9228 157.32C17.1388 157.672 17.4228 157.94 17.7748 158.124C18.1268 158.3 18.5108 158.388 18.9268 158.388C19.4708 158.388 19.9268 158.256 20.2948 157.992C20.6708 157.728 20.9188 157.372 21.0388 156.924H21.9268C21.7668 157.564 21.4228 158.088 20.8948 158.496C20.3748 158.896 19.7188 159.096 18.9268 159.096C18.3108 159.096 17.7588 158.96 17.2708 158.688C16.7828 158.408 16.3988 158.016 16.1188 157.512C15.8468 157 15.7108 156.404 15.7108 155.724C15.7108 155.044 15.8468 154.448 16.1188 153.936C16.3908 153.424 16.7708 153.032 17.2588 152.76C17.7468 152.488 18.3028 152.352 18.9268 152.352C19.5508 152.352 20.0948 152.488 20.5588 152.76C21.0308 153.032 21.3908 153.4 21.6388 153.864C21.8948 154.32 22.0228 154.828 22.0228 155.388ZM21.1708 155.364C21.1788 154.876 21.0788 154.46 20.8708 154.116C20.6708 153.772 20.3948 153.512 20.0428 153.336C19.6908 153.16 19.3068 153.072 18.8908 153.072C18.2668 153.072 17.7348 153.272 17.2948 153.672C16.8548 154.072 16.6108 154.636 16.5628 155.364H21.1708ZM31.3286 159L27.6926 155.124V159H26.8526V150.612H27.6926V154.536L31.3286 150.612H32.3966L28.4726 154.8L32.4326 159H31.3286ZM39.6009 155.388C39.6009 155.676 39.5929 155.896 39.5769 156.048H34.1409C34.1649 156.544 34.2849 156.968 34.5009 157.32C34.7169 157.672 35.0009 157.94 35.3529 158.124C35.7049 158.3 36.0889 158.388 36.5049 158.388C37.0489 158.388 37.5049 158.256 37.8729 157.992C38.2489 157.728 38.4969 157.372 38.6169 156.924H39.5049C39.3449 157.564 39.0009 158.088 38.4729 158.496C37.9529 158.896 37.2969 159.096 36.5049 159.096C35.8889 159.096 35.3369 158.96 34.8489 158.688C34.3609 158.408 33.9769 158.016 33.6969 157.512C33.4249 157 33.2889 156.404 33.2889 155.724C33.2889 155.044 33.4249 154.448 33.6969 153.936C33.9689 153.424 34.3489 153.032 34.8369 152.76C35.3249 152.488 35.8809 152.352 36.5049 152.352C37.1289 152.352 37.6729 152.488 38.1369 152.76C38.6089 153.032 38.9689 153.4 39.2169 153.864C39.4729 154.32 39.6009 154.828 39.6009 155.388ZM38.7489 155.364C38.7569 154.876 38.6569 154.46 38.4489 154.116C38.2489 153.772 37.9729 153.512 37.6209 153.336C37.2689 153.16 36.8849 153.072 36.4689 153.072C35.8449 153.072 35.3129 153.272 34.8729 153.672C34.4329 154.072 34.1889 154.636 34.1409 155.364H38.7489ZM47.0657 155.388C47.0657 155.676 47.0577 155.896 47.0417 156.048H41.6057C41.6297 156.544 41.7497 156.968 41.9657 157.32C42.1817 157.672 42.4657 157.94 42.8177 158.124C43.1697 158.3 43.5537 158.388 43.9697 158.388C44.5137 158.388 44.9697 158.256 45.3377 157.992C45.7137 157.728 45.9617 157.372 46.0817 156.924H46.9697C46.8097 157.564 46.4657 158.088 45.9377 158.496C45.4177 158.896 44.7617 159.096 43.9697 159.096C43.3537 159.096 42.8017 158.96 42.3137 158.688C41.8257 158.408 41.4417 158.016 41.1617 157.512C40.8897 157 40.7537 156.404 40.7537 155.724C40.7537 155.044 40.8897 154.448 41.1617 153.936C41.4337 153.424 41.8137 153.032 42.3017 152.76C42.7897 152.488 43.3457 152.352 43.9697 152.352C44.5937 152.352 45.1377 152.488 45.6017 152.76C46.0737 153.032 46.4337 153.4 46.6817 153.864C46.9377 154.32 47.0657 154.828 47.0657 155.388ZM46.2137 155.364C46.2217 154.876 46.1217 154.46 45.9137 154.116C45.7137 153.772 45.4377 153.512 45.0857 153.336C44.7337 153.16 44.3497 153.072 43.9337 153.072C43.3097 153.072 42.7777 153.272 42.3377 153.672C41.8977 154.072 41.6537 154.636 41.6057 155.364H46.2137ZM49.4306 153.888C49.6386 153.448 49.9666 153.084 50.4146 152.796C50.8706 152.5 51.4106 152.352 52.0346 152.352C52.6266 152.352 53.1586 152.492 53.6306 152.772C54.1106 153.044 54.4826 153.436 54.7466 153.948C55.0186 154.452 55.1546 155.04 55.1546 155.712C55.1546 156.384 55.0186 156.976 54.7466 157.488C54.4826 158 54.1106 158.396 53.6306 158.676C53.1586 158.956 52.6266 159.096 52.0346 159.096C51.4186 159.096 50.8826 158.952 50.4266 158.664C49.9706 158.368 49.6386 158 49.4306 157.56V162.096H48.6026V152.448H49.4306V153.888ZM54.3026 155.712C54.3026 155.168 54.1946 154.7 53.9786 154.308C53.7706 153.908 53.4826 153.604 53.1146 153.396C52.7466 153.188 52.3306 153.084 51.8666 153.084C51.4186 153.084 51.0066 153.192 50.6306 153.408C50.2626 153.624 49.9706 153.932 49.7546 154.332C49.5386 154.732 49.4306 155.196 49.4306 155.724C49.4306 156.252 49.5386 156.716 49.7546 157.116C49.9706 157.516 50.2626 157.824 50.6306 158.04C51.0066 158.256 51.4186 158.364 51.8666 158.364C52.3306 158.364 52.7466 158.26 53.1146 158.052C53.4826 157.836 53.7706 157.528 53.9786 157.128C54.1946 156.72 54.3026 156.248 54.3026 155.712ZM65.5372 150.612L62.8492 155.736V159H62.0092V155.736L59.2972 150.612H60.2452L62.4292 154.968L64.6012 150.612H65.5372ZM69.6346 159.096C69.0186 159.096 68.4626 158.96 67.9666 158.688C67.4786 158.408 67.0906 158.016 66.8026 157.512C66.5226 157 66.3826 156.404 66.3826 155.724C66.3826 155.044 66.5266 154.452 66.8146 153.948C67.1026 153.436 67.4946 153.044 67.9906 152.772C68.4866 152.492 69.0426 152.352 69.6586 152.352C70.2746 152.352 70.8306 152.492 71.3266 152.772C71.8306 153.044 72.2226 153.436 72.5026 153.948C72.7906 154.452 72.9346 155.044 72.9346 155.724C72.9346 156.396 72.7906 156.988 72.5026 157.5C72.2146 158.012 71.8186 158.408 71.3146 158.688C70.8106 158.96 70.2506 159.096 69.6346 159.096ZM69.6346 158.364C70.0666 158.364 70.4666 158.268 70.8346 158.076C71.2026 157.876 71.4986 157.58 71.7226 157.188C71.9546 156.788 72.0706 156.3 72.0706 155.724C72.0706 155.148 71.9586 154.664 71.7346 154.272C71.5106 153.872 71.2146 153.576 70.8466 153.384C70.4786 153.184 70.0786 153.084 69.6466 153.084C69.2146 153.084 68.8146 153.184 68.4466 153.384C68.0786 153.576 67.7826 153.872 67.5586 154.272C67.3426 154.664 67.2346 155.148 67.2346 155.724C67.2346 156.3 67.3426 156.788 67.5586 157.188C67.7826 157.58 68.0746 157.876 68.4346 158.076C68.8026 158.268 69.2026 158.364 69.6346 158.364ZM80.1419 152.448V159H79.3019V157.848C79.1099 158.256 78.8139 158.568 78.4139 158.784C78.0139 159 77.5659 159.108 77.0699 159.108C76.2859 159.108 75.6459 158.868 75.1499 158.388C74.6539 157.9 74.4059 157.196 74.4059 156.276V152.448H75.2339V156.18C75.2339 156.892 75.4099 157.436 75.7619 157.812C76.1219 158.188 76.6099 158.376 77.2259 158.376C77.8579 158.376 78.3619 158.176 78.7379 157.776C79.1139 157.376 79.3019 156.788 79.3019 156.012V152.448H80.1419ZM82.8996 153.612C83.0836 153.204 83.3636 152.888 83.7396 152.664C84.1236 152.44 84.5916 152.328 85.1436 152.328V153.204H84.9156C84.3076 153.204 83.8196 153.368 83.4516 153.696C83.0836 154.024 82.8996 154.572 82.8996 155.34V159H82.0596V152.448H82.8996V153.612ZM99.8762 150.612L97.5002 159H96.5642L94.4522 151.848L92.2922 159L91.3802 159.012L89.0522 150.612H89.9522L91.8722 157.968L94.0202 150.612H94.9562L97.0442 157.968L98.9762 150.612H99.8762ZM107.089 155.388C107.089 155.676 107.081 155.896 107.065 156.048H101.629C101.653 156.544 101.773 156.968 101.989 157.32C102.205 157.672 102.489 157.94 102.841 158.124C103.193 158.3 103.577 158.388 103.993 158.388C104.537 158.388 104.993 158.256 105.361 157.992C105.737 157.728 105.985 157.372 106.105 156.924H106.993C106.833 157.564 106.489 158.088 105.961 158.496C105.441 158.896 104.785 159.096 103.993 159.096C103.377 159.096 102.825 158.96 102.337 158.688C101.849 158.408 101.465 158.016 101.185 157.512C100.913 157 100.777 156.404 100.777 155.724C100.777 155.044 100.913 154.448 101.185 153.936C101.457 153.424 101.837 153.032 102.325 152.76C102.813 152.488 103.369 152.352 103.993 152.352C104.617 152.352 105.161 152.488 105.625 152.76C106.097 153.032 106.457 153.4 106.705 153.864C106.961 154.32 107.089 154.828 107.089 155.388ZM106.237 155.364C106.245 154.876 106.145 154.46 105.937 154.116C105.737 153.772 105.461 153.512 105.109 153.336C104.757 153.16 104.373 153.072 103.957 153.072C103.333 153.072 102.801 153.272 102.361 153.672C101.921 154.072 101.677 154.636 101.629 155.364H106.237ZM109.454 153.9C109.67 153.444 110.002 153.072 110.45 152.784C110.906 152.496 111.442 152.352 112.058 152.352C112.658 152.352 113.194 152.492 113.666 152.772C114.138 153.044 114.506 153.436 114.77 153.948C115.042 154.452 115.178 155.04 115.178 155.712C115.178 156.384 115.042 156.976 114.77 157.488C114.506 158 114.134 158.396 113.654 158.676C113.182 158.956 112.65 159.096 112.058 159.096C111.434 159.096 110.894 158.956 110.438 158.676C109.99 158.388 109.662 158.016 109.454 157.56V159H108.626V150.12H109.454V153.9ZM114.326 155.712C114.326 155.168 114.218 154.7 114.002 154.308C113.794 153.908 113.506 153.604 113.138 153.396C112.77 153.188 112.354 153.084 111.89 153.084C111.442 153.084 111.03 153.192 110.654 153.408C110.286 153.624 109.994 153.932 109.778 154.332C109.562 154.732 109.454 155.196 109.454 155.724C109.454 156.252 109.562 156.716 109.778 157.116C109.994 157.516 110.286 157.824 110.654 158.04C111.03 158.256 111.442 158.364 111.89 158.364C112.354 158.364 112.77 158.26 113.138 158.052C113.506 157.836 113.794 157.528 114.002 157.128C114.218 156.72 114.326 156.248 114.326 155.712ZM120.845 153.9C121.061 153.444 121.393 153.072 121.841 152.784C122.297 152.496 122.833 152.352 123.449 152.352C124.049 152.352 124.585 152.492 125.057 152.772C125.529 153.044 125.897 153.436 126.161 153.948C126.433 154.452 126.569 155.04 126.569 155.712C126.569 156.384 126.433 156.976 126.161 157.488C125.897 158 125.525 158.396 125.045 158.676C124.573 158.956 124.041 159.096 123.449 159.096C122.825 159.096 122.285 158.956 121.829 158.676C121.381 158.388 121.053 158.016 120.845 157.56V159H120.017V150.12H120.845V153.9ZM125.717 155.712C125.717 155.168 125.609 154.7 125.393 154.308C125.185 153.908 124.897 153.604 124.529 153.396C124.161 153.188 123.745 153.084 123.281 153.084C122.833 153.084 122.421 153.192 122.045 153.408C121.677 153.624 121.385 153.932 121.169 154.332C120.953 154.732 120.845 155.196 120.845 155.724C120.845 156.252 120.953 156.716 121.169 157.116C121.385 157.516 121.677 157.824 122.045 158.04C122.421 158.256 122.833 158.364 123.281 158.364C123.745 158.364 124.161 158.26 124.529 158.052C124.897 157.836 125.185 157.528 125.393 157.128C125.609 156.72 125.717 156.248 125.717 155.712ZM133.79 152.448V159H132.95V157.848C132.758 158.256 132.462 158.568 132.062 158.784C131.662 159 131.214 159.108 130.718 159.108C129.934 159.108 129.294 158.868 128.798 158.388C128.302 157.9 128.054 157.196 128.054 156.276V152.448H128.882V156.18C128.882 156.892 129.058 157.436 129.41 157.812C129.77 158.188 130.258 158.376 130.874 158.376C131.506 158.376 132.01 158.176 132.386 157.776C132.762 157.376 132.95 156.788 132.95 156.012V152.448H133.79ZM136.128 151.212C135.96 151.212 135.816 151.152 135.696 151.032C135.576 150.912 135.516 150.764 135.516 150.588C135.516 150.412 135.576 150.268 135.696 150.156C135.816 150.036 135.96 149.976 136.128 149.976C136.296 149.976 136.44 150.036 136.56 150.156C136.68 150.268 136.74 150.412 136.74 150.588C136.74 150.764 136.68 150.912 136.56 151.032C136.44 151.152 136.296 151.212 136.128 151.212ZM136.548 152.448V159H135.708V152.448H136.548ZM139.29 150.12V159H138.45V150.12H139.29ZM140.808 155.712C140.808 155.04 140.944 154.452 141.216 153.948C141.488 153.436 141.86 153.044 142.332 152.772C142.812 152.492 143.352 152.352 143.952 152.352C144.528 152.352 145.048 152.492 145.512 152.772C145.976 153.052 146.316 153.416 146.532 153.864V150.12H147.372V159H146.532V157.536C146.332 157.992 146.004 158.368 145.548 158.664C145.092 158.952 144.556 159.096 143.94 159.096C143.34 159.096 142.8 158.956 142.32 158.676C141.848 158.396 141.476 158 141.204 157.488C140.94 156.976 140.808 156.384 140.808 155.712ZM146.532 155.724C146.532 155.196 146.424 154.732 146.208 154.332C145.992 153.932 145.696 153.624 145.32 153.408C144.952 153.192 144.544 153.084 144.096 153.084C143.632 153.084 143.216 153.188 142.848 153.396C142.48 153.604 142.188 153.908 141.972 154.308C141.764 154.7 141.66 155.168 141.66 155.712C141.66 156.248 141.764 156.72 141.972 157.128C142.188 157.528 142.48 157.836 142.848 158.052C143.216 158.26 143.632 158.364 144.096 158.364C144.544 158.364 144.952 158.256 145.32 158.04C145.696 157.824 145.992 157.516 146.208 157.116C146.424 156.716 146.532 156.252 146.532 155.724ZM156.351 159.084C155.575 159.084 154.871 158.904 154.239 158.544C153.607 158.176 153.107 157.668 152.739 157.02C152.379 156.364 152.199 155.624 152.199 154.8C152.199 153.976 152.379 153.24 152.739 152.592C153.107 151.936 153.607 151.428 154.239 151.068C154.871 150.7 155.575 150.516 156.351 150.516C157.135 150.516 157.843 150.7 158.475 151.068C159.107 151.428 159.603 151.936 159.963 152.592C160.323 153.24 160.503 153.976 160.503 154.8C160.503 155.624 160.323 156.364 159.963 157.02C159.603 157.668 159.107 158.176 158.475 158.544C157.843 158.904 157.135 159.084 156.351 159.084ZM156.351 158.352C156.975 158.352 157.535 158.208 158.031 157.92C158.527 157.632 158.919 157.22 159.207 156.684C159.495 156.14 159.639 155.512 159.639 154.8C159.639 154.088 159.495 153.464 159.207 152.928C158.919 152.392 158.527 151.98 158.031 151.692C157.535 151.404 156.975 151.26 156.351 151.26C155.727 151.26 155.167 151.404 154.671 151.692C154.175 151.98 153.783 152.392 153.495 152.928C153.207 153.464 153.063 154.088 153.063 154.8C153.063 155.512 153.207 156.14 153.495 156.684C153.783 157.22 154.175 157.632 154.671 157.92C155.167 158.208 155.727 158.352 156.351 158.352ZM165.112 152.328C165.896 152.328 166.536 152.572 167.032 153.06C167.528 153.54 167.776 154.24 167.776 155.16V159H166.948V155.256C166.948 154.544 166.768 154 166.408 153.624C166.056 153.248 165.572 153.06 164.956 153.06C164.324 153.06 163.82 153.26 163.444 153.66C163.068 154.06 162.88 154.648 162.88 155.424V159H162.04V152.448H162.88V153.564C163.088 153.164 163.388 152.86 163.78 152.652C164.172 152.436 164.616 152.328 165.112 152.328ZM170.474 150.12V159H169.634V150.12H170.474ZM172.796 151.212C172.628 151.212 172.484 151.152 172.364 151.032C172.244 150.912 172.184 150.764 172.184 150.588C172.184 150.412 172.244 150.268 172.364 150.156C172.484 150.036 172.628 149.976 172.796 149.976C172.964 149.976 173.108 150.036 173.228 150.156C173.348 150.268 173.408 150.412 173.408 150.588C173.408 150.764 173.348 150.912 173.228 151.032C173.108 151.152 172.964 151.212 172.796 151.212ZM173.216 152.448V159H172.376V152.448H173.216ZM178.19 152.328C178.974 152.328 179.614 152.572 180.11 153.06C180.606 153.54 180.854 154.24 180.854 155.16V159H180.026V155.256C180.026 154.544 179.846 154 179.486 153.624C179.134 153.248 178.65 153.06 178.034 153.06C177.402 153.06 176.898 153.26 176.522 153.66C176.146 154.06 175.958 154.648 175.958 155.424V159H175.118V152.448H175.958V153.564C176.166 153.164 176.466 152.86 176.858 152.652C177.25 152.436 177.694 152.328 178.19 152.328ZM188.64 155.388C188.64 155.676 188.632 155.896 188.616 156.048H183.18C183.204 156.544 183.324 156.968 183.54 157.32C183.756 157.672 184.04 157.94 184.392 158.124C184.744 158.3 185.128 158.388 185.544 158.388C186.088 158.388 186.544 158.256 186.912 157.992C187.288 157.728 187.536 157.372 187.656 156.924H188.544C188.384 157.564 188.04 158.088 187.512 158.496C186.992 158.896 186.336 159.096 185.544 159.096C184.928 159.096 184.376 158.96 183.888 158.688C183.4 158.408 183.016 158.016 182.736 157.512C182.464 157 182.328 156.404 182.328 155.724C182.328 155.044 182.464 154.448 182.736 153.936C183.008 153.424 183.388 153.032 183.876 152.76C184.364 152.488 184.92 152.352 185.544 152.352C186.168 152.352 186.712 152.488 187.176 152.76C187.648 153.032 188.008 153.4 188.256 153.864C188.512 154.32 188.64 154.828 188.64 155.388ZM187.788 155.364C187.796 154.876 187.696 154.46 187.488 154.116C187.288 153.772 187.012 153.512 186.66 153.336C186.308 153.16 185.924 153.072 185.508 153.072C184.884 153.072 184.352 153.272 183.912 153.672C183.472 154.072 183.228 154.636 183.18 155.364H187.788ZM193.122 158.34C194.594 157.236 195.73 156.248 196.53 155.376C197.338 154.496 197.742 153.636 197.742 152.796C197.742 152.244 197.602 151.804 197.322 151.476C197.05 151.14 196.602 150.972 195.978 150.972C195.37 150.972 194.898 151.164 194.562 151.548C194.234 151.924 194.05 152.428 194.01 153.06H193.194C193.242 152.172 193.514 151.484 194.01 150.996C194.514 150.5 195.17 150.252 195.978 150.252C196.754 150.252 197.382 150.472 197.862 150.912C198.342 151.344 198.582 151.96 198.582 152.76C198.582 153.728 198.178 154.668 197.37 155.58C196.57 156.484 195.582 157.368 194.406 158.232H198.846V158.94H193.122V158.34ZM199.785 156.96V156.324L204.153 150.444H205.149V156.228H206.433V156.96H205.149V159H204.321V156.96H199.785ZM204.357 151.368L200.757 156.228H204.357V151.368ZM211.128 159L209.436 156.36L207.804 159H206.916L209.028 155.724L206.94 152.448H207.888L209.556 155.052L211.176 152.448H212.052L209.964 155.688L212.076 159H211.128ZM218.184 151.056L214.836 159H213.984L217.368 151.128H212.568V150.408H218.184V151.056ZM223.046 159L221.354 156.36L219.722 159H218.834L220.946 155.724L218.858 152.448H219.806L221.474 155.052L223.094 152.448H223.97L221.882 155.688L223.994 159H223.046ZM224.918 152.592C224.974 151.864 225.254 151.292 225.758 150.876C226.27 150.452 226.93 150.24 227.738 150.24C228.274 150.24 228.734 150.336 229.118 150.528C229.502 150.72 229.79 150.984 229.982 151.32C230.182 151.648 230.282 152.02 230.282 152.436C230.282 152.94 230.134 153.376 229.838 153.744C229.542 154.112 229.122 154.34 228.578 154.428V154.488C229.146 154.6 229.598 154.848 229.934 155.232C230.27 155.608 230.438 156.104 230.438 156.72C230.438 157.408 230.206 157.972 229.742 158.412C229.286 158.844 228.622 159.06 227.75 159.06C226.918 159.06 226.234 158.844 225.698 158.412C225.162 157.972 224.854 157.352 224.774 156.552H225.59C225.662 157.088 225.886 157.524 226.262 157.86C226.638 158.188 227.134 158.352 227.75 158.352C228.358 158.352 228.822 158.192 229.142 157.872C229.47 157.552 229.634 157.144 229.634 156.648C229.634 155.432 228.758 154.824 227.006 154.824H226.742V154.116H227.018C228.65 154.116 229.466 153.584 229.466 152.52C229.466 152.056 229.314 151.684 229.01 151.404C228.706 151.116 228.274 150.972 227.714 150.972C227.17 150.972 226.718 151.116 226.358 151.404C226.006 151.684 225.798 152.08 225.734 152.592H224.918ZM236.917 152.496C236.741 151.456 236.137 150.936 235.105 150.936C234.321 150.936 233.733 151.24 233.341 151.848C232.949 152.456 232.769 153.452 232.801 154.836C232.961 154.356 233.265 153.98 233.713 153.708C234.169 153.428 234.689 153.288 235.273 153.288C236.113 153.288 236.777 153.548 237.265 154.068C237.761 154.58 238.009 155.288 238.009 156.192C238.009 156.72 237.905 157.2 237.697 157.632C237.497 158.056 237.185 158.396 236.761 158.652C236.345 158.908 235.825 159.036 235.201 159.036C234.009 159.036 233.185 158.656 232.729 157.896C232.281 157.136 232.057 156.06 232.057 154.668C232.057 151.708 233.073 150.228 235.105 150.228C235.873 150.228 236.477 150.44 236.917 150.864C237.357 151.28 237.617 151.824 237.697 152.496H236.917ZM235.117 154.008C234.741 154.008 234.385 154.084 234.049 154.236C233.713 154.388 233.437 154.62 233.221 154.932C233.013 155.236 232.909 155.612 232.909 156.06C232.909 156.708 233.101 157.248 233.485 157.68C233.869 158.112 234.429 158.328 235.165 158.328C235.781 158.328 236.273 158.14 236.641 157.764C237.009 157.388 237.193 156.876 237.193 156.228C237.193 155.532 237.013 154.988 236.653 154.596C236.293 154.204 235.781 154.008 235.117 154.008ZM244.944 151.116H240.552V154.188C240.752 153.908 241.044 153.68 241.428 153.504C241.812 153.32 242.228 153.228 242.676 153.228C243.332 153.228 243.868 153.364 244.284 153.636C244.7 153.9 245 154.248 245.184 154.68C245.368 155.104 245.46 155.56 245.46 156.048C245.46 156.608 245.352 157.116 245.136 157.572C244.928 158.02 244.604 158.376 244.164 158.64C243.732 158.904 243.192 159.036 242.544 159.036C241.72 159.036 241.052 158.824 240.54 158.4C240.028 157.968 239.716 157.388 239.604 156.66H240.432C240.536 157.188 240.776 157.596 241.152 157.884C241.528 158.172 241.992 158.316 242.544 158.316C243.24 158.316 243.764 158.112 244.116 157.704C244.476 157.288 244.656 156.74 244.656 156.06C244.656 155.396 244.476 154.88 244.116 154.512C243.756 154.136 243.24 153.948 242.568 153.948C242.104 153.948 241.696 154.056 241.344 154.272C240.992 154.488 240.732 154.78 240.564 155.148H239.772V150.384H244.944V151.116ZM247.25 159.06C247.074 159.06 246.926 159 246.806 158.88C246.694 158.76 246.638 158.612 246.638 158.436C246.638 158.26 246.694 158.116 246.806 158.004C246.926 157.884 247.074 157.824 247.25 157.824C247.418 157.824 247.558 157.884 247.67 158.004C247.79 158.116 247.85 158.26 247.85 158.436C247.85 158.612 247.79 158.76 247.67 158.88C247.558 159 247.418 159.06 247.25 159.06ZM9.91861 168.612C10.8466 168.612 11.6426 168.78 12.3066 169.116C12.9706 169.452 13.4786 169.936 13.8306 170.568C14.1826 171.2 14.3586 171.952 14.3586 172.824C14.3586 173.688 14.1826 174.436 13.8306 175.068C13.4786 175.692 12.9706 176.172 12.3066 176.508C11.6426 176.836 10.8466 177 9.91861 177H7.43461V168.612H9.91861ZM9.91861 176.304C11.0866 176.304 11.9746 176 12.5826 175.392C13.1986 174.776 13.5066 173.92 13.5066 172.824C13.5066 171.72 13.1986 170.86 12.5826 170.244C11.9746 169.62 11.0866 169.308 9.91861 169.308H8.27461V176.304H9.91861ZM18.7753 177.096C18.1593 177.096 17.6033 176.96 17.1073 176.688C16.6193 176.408 16.2313 176.016 15.9433 175.512C15.6633 175 15.5233 174.404 15.5233 173.724C15.5233 173.044 15.6673 172.452 15.9553 171.948C16.2433 171.436 16.6353 171.044 17.1313 170.772C17.6273 170.492 18.1833 170.352 18.7993 170.352C19.4153 170.352 19.9713 170.492 20.4673 170.772C20.9713 171.044 21.3633 171.436 21.6433 171.948C21.9313 172.452 22.0753 173.044 22.0753 173.724C22.0753 174.396 21.9313 174.988 21.6433 175.5C21.3553 176.012 20.9593 176.408 20.4553 176.688C19.9513 176.96 19.3913 177.096 18.7753 177.096ZM18.7753 176.364C19.2073 176.364 19.6073 176.268 19.9753 176.076C20.3433 175.876 20.6393 175.58 20.8633 175.188C21.0953 174.788 21.2113 174.3 21.2113 173.724C21.2113 173.148 21.0993 172.664 20.8753 172.272C20.6513 171.872 20.3553 171.576 19.9873 171.384C19.6193 171.184 19.2193 171.084 18.7873 171.084C18.3553 171.084 17.9553 171.184 17.5873 171.384C17.2193 171.576 16.9233 171.872 16.6993 172.272C16.4833 172.664 16.3753 173.148 16.3753 173.724C16.3753 174.3 16.4833 174.788 16.6993 175.188C16.9233 175.58 17.2153 175.876 17.5753 176.076C17.9433 176.268 18.3433 176.364 18.7753 176.364ZM32.2465 170.448L30.1945 177H29.3545L27.5425 171.504L25.7305 177H24.8785L22.8265 170.448H23.6785L25.3105 176.148L27.1465 170.448H27.9865L29.7985 176.16L31.4185 170.448H32.2465ZM36.4636 170.328C37.2476 170.328 37.8876 170.572 38.3836 171.06C38.8796 171.54 39.1276 172.24 39.1276 173.16V177H38.2996V173.256C38.2996 172.544 38.1196 172 37.7596 171.624C37.4076 171.248 36.9236 171.06 36.3076 171.06C35.6756 171.06 35.1716 171.26 34.7956 171.66C34.4196 172.06 34.2316 172.648 34.2316 173.424V177H33.3916V170.448H34.2316V171.564C34.4396 171.164 34.7396 170.86 35.1316 170.652C35.5236 170.436 35.9676 170.328 36.4636 170.328ZM42.0774 171.156V175.224C42.0774 175.624 42.1534 175.9 42.3054 176.052C42.4574 176.204 42.7254 176.28 43.1094 176.28H43.8774V177H42.9774C42.3854 177 41.9454 176.864 41.6574 176.592C41.3694 176.312 41.2254 175.856 41.2254 175.224V171.156H40.3134V170.448H41.2254V168.804H42.0774V170.448H43.8774V171.156H42.0774ZM45.6827 169.212C45.5147 169.212 45.3707 169.152 45.2507 169.032C45.1307 168.912 45.0707 168.764 45.0707 168.588C45.0707 168.412 45.1307 168.268 45.2507 168.156C45.3707 168.036 45.5147 167.976 45.6827 167.976C45.8507 167.976 45.9947 168.036 46.1147 168.156C46.2347 168.268 46.2947 168.412 46.2947 168.588C46.2947 168.764 46.2347 168.912 46.1147 169.032C45.9947 169.152 45.8507 169.212 45.6827 169.212ZM46.1027 170.448V177H45.2627V170.448H46.1027ZM55.8049 170.328C56.5729 170.328 57.1969 170.572 57.6769 171.06C58.1649 171.54 58.4089 172.24 58.4089 173.16V177H57.5809V173.256C57.5809 172.544 57.4089 172 57.0649 171.624C56.7209 171.248 56.2529 171.06 55.6609 171.06C55.0449 171.06 54.5529 171.264 54.1849 171.672C53.8169 172.08 53.6329 172.672 53.6329 173.448V177H52.8049V173.256C52.8049 172.544 52.6329 172 52.2889 171.624C51.9449 171.248 51.4729 171.06 50.8729 171.06C50.2569 171.06 49.7649 171.264 49.3969 171.672C49.0289 172.08 48.8449 172.672 48.8449 173.448V177H48.0049V170.448H48.8449V171.576C49.0529 171.168 49.3489 170.86 49.7329 170.652C50.1169 170.436 50.5449 170.328 51.0169 170.328C51.5849 170.328 52.0809 170.464 52.5049 170.736C52.9369 171.008 53.2489 171.408 53.4409 171.936C53.6169 171.416 53.9169 171.02 54.3409 170.748C54.7729 170.468 55.2609 170.328 55.8049 170.328ZM66.2025 173.388C66.2025 173.676 66.1945 173.896 66.1785 174.048H60.7425C60.7665 174.544 60.8865 174.968 61.1025 175.32C61.3185 175.672 61.6025 175.94 61.9545 176.124C62.3065 176.3 62.6905 176.388 63.1065 176.388C63.6505 176.388 64.1065 176.256 64.4745 175.992C64.8505 175.728 65.0985 175.372 65.2185 174.924H66.1065C65.9465 175.564 65.6025 176.088 65.0745 176.496C64.5545 176.896 63.8985 177.096 63.1065 177.096C62.4905 177.096 61.9385 176.96 61.4505 176.688C60.9625 176.408 60.5785 176.016 60.2985 175.512C60.0265 175 59.8905 174.404 59.8905 173.724C59.8905 173.044 60.0265 172.448 60.2985 171.936C60.5705 171.424 60.9505 171.032 61.4385 170.76C61.9265 170.488 62.4825 170.352 63.1065 170.352C63.7305 170.352 64.2745 170.488 64.7385 170.76C65.2105 171.032 65.5705 171.4 65.8185 171.864C66.0745 172.32 66.2025 172.828 66.2025 173.388ZM65.3505 173.364C65.3585 172.876 65.2585 172.46 65.0505 172.116C64.8505 171.772 64.5745 171.512 64.2225 171.336C63.8705 171.16 63.4865 171.072 63.0705 171.072C62.4465 171.072 61.9145 171.272 61.4745 171.672C61.0345 172.072 60.7905 172.636 60.7425 173.364H65.3505ZM74.1043 170.328C74.8883 170.328 75.5283 170.572 76.0243 171.06C76.5203 171.54 76.7683 172.24 76.7683 173.16V177H75.9403V173.256C75.9403 172.544 75.7603 172 75.4003 171.624C75.0483 171.248 74.5643 171.06 73.9483 171.06C73.3163 171.06 72.8123 171.26 72.4363 171.66C72.0603 172.06 71.8723 172.648 71.8723 173.424V177H71.0323V170.448H71.8723V171.564C72.0803 171.164 72.3803 170.86 72.7723 170.652C73.1643 170.436 73.6083 170.328 74.1043 170.328ZM81.494 177.096C80.878 177.096 80.322 176.96 79.826 176.688C79.338 176.408 78.95 176.016 78.662 175.512C78.382 175 78.242 174.404 78.242 173.724C78.242 173.044 78.386 172.452 78.674 171.948C78.962 171.436 79.354 171.044 79.85 170.772C80.346 170.492 80.902 170.352 81.518 170.352C82.134 170.352 82.69 170.492 83.186 170.772C83.69 171.044 84.082 171.436 84.362 171.948C84.65 172.452 84.794 173.044 84.794 173.724C84.794 174.396 84.65 174.988 84.362 175.5C84.074 176.012 83.678 176.408 83.174 176.688C82.67 176.96 82.11 177.096 81.494 177.096ZM81.494 176.364C81.926 176.364 82.326 176.268 82.694 176.076C83.062 175.876 83.358 175.58 83.582 175.188C83.814 174.788 83.93 174.3 83.93 173.724C83.93 173.148 83.818 172.664 83.594 172.272C83.37 171.872 83.074 171.576 82.706 171.384C82.338 171.184 81.938 171.084 81.506 171.084C81.074 171.084 80.674 171.184 80.306 171.384C79.938 171.576 79.642 171.872 79.418 172.272C79.202 172.664 79.094 173.148 79.094 173.724C79.094 174.3 79.202 174.788 79.418 175.188C79.642 175.58 79.934 175.876 80.294 176.076C80.662 176.268 81.062 176.364 81.494 176.364ZM87.4172 171.156V175.224C87.4172 175.624 87.4932 175.9 87.6452 176.052C87.7972 176.204 88.0652 176.28 88.4492 176.28H89.2172V177H88.3172C87.7252 177 87.2852 176.864 86.9972 176.592C86.7092 176.312 86.5652 175.856 86.5652 175.224V171.156H85.6532V170.448H86.5652V168.804H87.4172V170.448H89.2172V171.156H87.4172ZM96.7635 177.096C96.1475 177.096 95.5915 176.96 95.0955 176.688C94.6075 176.408 94.2195 176.016 93.9315 175.512C93.6515 175 93.5115 174.404 93.5115 173.724C93.5115 173.044 93.6555 172.452 93.9435 171.948C94.2315 171.436 94.6235 171.044 95.1195 170.772C95.6155 170.492 96.1715 170.352 96.7875 170.352C97.4035 170.352 97.9595 170.492 98.4555 170.772C98.9595 171.044 99.3515 171.436 99.6315 171.948C99.9195 172.452 100.064 173.044 100.064 173.724C100.064 174.396 99.9195 174.988 99.6315 175.5C99.3435 176.012 98.9475 176.408 98.4435 176.688C97.9395 176.96 97.3795 177.096 96.7635 177.096ZM96.7635 176.364C97.1955 176.364 97.5955 176.268 97.9635 176.076C98.3315 175.876 98.6275 175.58 98.8515 175.188C99.0835 174.788 99.1995 174.3 99.1995 173.724C99.1995 173.148 99.0875 172.664 98.8635 172.272C98.6395 171.872 98.3435 171.576 97.9755 171.384C97.6075 171.184 97.2075 171.084 96.7755 171.084C96.3435 171.084 95.9435 171.184 95.5755 171.384C95.2075 171.576 94.9115 171.872 94.6875 172.272C94.4715 172.664 94.3635 173.148 94.3635 173.724C94.3635 174.3 94.4715 174.788 94.6875 175.188C94.9115 175.58 95.2035 175.876 95.5635 176.076C95.9315 176.268 96.3315 176.364 96.7635 176.364ZM104.667 170.328C105.451 170.328 106.091 170.572 106.587 171.06C107.083 171.54 107.331 172.24 107.331 173.16V177H106.503V173.256C106.503 172.544 106.323 172 105.963 171.624C105.611 171.248 105.127 171.06 104.511 171.06C103.879 171.06 103.375 171.26 102.999 171.66C102.623 172.06 102.435 172.648 102.435 173.424V177H101.595V170.448H102.435V171.564C102.643 171.164 102.943 170.86 103.335 170.652C103.727 170.436 104.171 170.328 104.667 170.328ZM110.029 168.12V177H109.189V168.12H110.029ZM117.331 170.448L113.443 180.084H112.567L113.839 176.964L111.151 170.448H112.075L114.307 176.04L116.467 170.448H117.331ZM121.379 173.724C121.379 173.044 121.515 172.452 121.787 171.948C122.059 171.436 122.435 171.044 122.915 170.772C123.395 170.492 123.943 170.352 124.559 170.352C125.367 170.352 126.031 170.552 126.551 170.952C127.079 171.352 127.419 171.896 127.571 172.584H126.671C126.559 172.112 126.315 171.744 125.939 171.48C125.571 171.208 125.111 171.072 124.559 171.072C124.119 171.072 123.723 171.172 123.371 171.372C123.019 171.572 122.739 171.872 122.531 172.272C122.331 172.664 122.231 173.148 122.231 173.724C122.231 174.3 122.331 174.788 122.531 175.188C122.739 175.588 123.019 175.888 123.371 176.088C123.723 176.288 124.119 176.388 124.559 176.388C125.111 176.388 125.571 176.256 125.939 175.992C126.315 175.72 126.559 175.344 126.671 174.864H127.571C127.419 175.536 127.079 176.076 126.551 176.484C126.023 176.892 125.359 177.096 124.559 177.096C123.943 177.096 123.395 176.96 122.915 176.688C122.435 176.408 122.059 176.016 121.787 175.512C121.515 175 121.379 174.404 121.379 173.724ZM131.99 177.096C131.374 177.096 130.818 176.96 130.322 176.688C129.834 176.408 129.446 176.016 129.158 175.512C128.878 175 128.738 174.404 128.738 173.724C128.738 173.044 128.882 172.452 129.17 171.948C129.458 171.436 129.85 171.044 130.346 170.772C130.842 170.492 131.398 170.352 132.014 170.352C132.63 170.352 133.186 170.492 133.682 170.772C134.186 171.044 134.578 171.436 134.858 171.948C135.146 172.452 135.29 173.044 135.29 173.724C135.29 174.396 135.146 174.988 134.858 175.5C134.57 176.012 134.174 176.408 133.67 176.688C133.166 176.96 132.606 177.096 131.99 177.096ZM131.99 176.364C132.422 176.364 132.822 176.268 133.19 176.076C133.558 175.876 133.854 175.58 134.078 175.188C134.31 174.788 134.426 174.3 134.426 173.724C134.426 173.148 134.314 172.664 134.09 172.272C133.866 171.872 133.57 171.576 133.202 171.384C132.834 171.184 132.434 171.084 132.002 171.084C131.57 171.084 131.17 171.184 130.802 171.384C130.434 171.576 130.138 171.872 129.914 172.272C129.698 172.664 129.59 173.148 129.59 173.724C129.59 174.3 129.698 174.788 129.914 175.188C130.138 175.58 130.43 175.876 130.79 176.076C131.158 176.268 131.558 176.364 131.99 176.364ZM139.077 177.096C138.325 177.096 137.709 176.924 137.229 176.58C136.757 176.228 136.493 175.752 136.437 175.152H137.301C137.341 175.52 137.513 175.82 137.817 176.052C138.129 176.276 138.545 176.388 139.065 176.388C139.521 176.388 139.877 176.28 140.133 176.064C140.397 175.848 140.529 175.58 140.529 175.26C140.529 175.036 140.457 174.852 140.313 174.708C140.169 174.564 139.985 174.452 139.761 174.372C139.545 174.284 139.249 174.192 138.873 174.096C138.385 173.968 137.989 173.84 137.685 173.712C137.381 173.584 137.121 173.396 136.905 173.148C136.697 172.892 136.593 172.552 136.593 172.128C136.593 171.808 136.689 171.512 136.881 171.24C137.073 170.968 137.345 170.752 137.697 170.592C138.049 170.432 138.449 170.352 138.897 170.352C139.601 170.352 140.169 170.532 140.601 170.892C141.033 171.244 141.265 171.732 141.297 172.356H140.457C140.433 171.972 140.281 171.664 140.001 171.432C139.729 171.192 139.353 171.072 138.873 171.072C138.449 171.072 138.105 171.172 137.841 171.372C137.577 171.572 137.445 171.82 137.445 172.116C137.445 172.372 137.521 172.584 137.673 172.752C137.833 172.912 138.029 173.04 138.261 173.136C138.493 173.224 138.805 173.324 139.197 173.436C139.669 173.564 140.045 173.688 140.325 173.808C140.605 173.928 140.845 174.104 141.045 174.336C141.245 174.568 141.349 174.876 141.357 175.26C141.357 175.612 141.261 175.928 141.069 176.208C140.877 176.48 140.609 176.696 140.265 176.856C139.921 177.016 139.525 177.096 139.077 177.096ZM144.031 171.156V175.224C144.031 175.624 144.107 175.9 144.259 176.052C144.411 176.204 144.679 176.28 145.063 176.28H145.831V177H144.931C144.339 177 143.899 176.864 143.611 176.592C143.323 176.312 143.179 175.856 143.179 175.224V171.156H142.267V170.448H143.179V168.804H144.031V170.448H145.831V171.156H144.031ZM149.472 177.096C148.72 177.096 148.104 176.924 147.624 176.58C147.152 176.228 146.888 175.752 146.832 175.152H147.696C147.736 175.52 147.908 175.82 148.212 176.052C148.524 176.276 148.94 176.388 149.46 176.388C149.916 176.388 150.272 176.28 150.528 176.064C150.792 175.848 150.924 175.58 150.924 175.26C150.924 175.036 150.852 174.852 150.708 174.708C150.564 174.564 150.38 174.452 150.156 174.372C149.94 174.284 149.644 174.192 149.268 174.096C148.78 173.968 148.384 173.84 148.08 173.712C147.776 173.584 147.516 173.396 147.3 173.148C147.092 172.892 146.988 172.552 146.988 172.128C146.988 171.808 147.084 171.512 147.276 171.24C147.468 170.968 147.74 170.752 148.092 170.592C148.444 170.432 148.844 170.352 149.292 170.352C149.996 170.352 150.564 170.532 150.996 170.892C151.428 171.244 151.66 171.732 151.692 172.356H150.852C150.828 171.972 150.676 171.664 150.396 171.432C150.124 171.192 149.748 171.072 149.268 171.072C148.844 171.072 148.5 171.172 148.236 171.372C147.972 171.572 147.84 171.82 147.84 172.116C147.84 172.372 147.916 172.584 148.068 172.752C148.228 172.912 148.424 173.04 148.656 173.136C148.888 173.224 149.2 173.324 149.592 173.436C150.064 173.564 150.44 173.688 150.72 173.808C151 173.928 151.24 174.104 151.44 174.336C151.64 174.568 151.744 174.876 151.752 175.26C151.752 175.612 151.656 175.928 151.464 176.208C151.272 176.48 151.004 176.696 150.66 176.856C150.316 177.016 149.92 177.096 149.472 177.096ZM162.026 170.448L158.138 180.084H157.262L158.534 176.964L155.846 170.448H156.77L159.002 176.04L161.162 170.448H162.026ZM166.033 177.096C165.417 177.096 164.861 176.96 164.365 176.688C163.877 176.408 163.489 176.016 163.201 175.512C162.921 175 162.781 174.404 162.781 173.724C162.781 173.044 162.925 172.452 163.213 171.948C163.501 171.436 163.893 171.044 164.389 170.772C164.885 170.492 165.441 170.352 166.057 170.352C166.673 170.352 167.229 170.492 167.725 170.772C168.229 171.044 168.621 171.436 168.901 171.948C169.189 172.452 169.333 173.044 169.333 173.724C169.333 174.396 169.189 174.988 168.901 175.5C168.613 176.012 168.217 176.408 167.713 176.688C167.209 176.96 166.649 177.096 166.033 177.096ZM166.033 176.364C166.465 176.364 166.865 176.268 167.233 176.076C167.601 175.876 167.897 175.58 168.121 175.188C168.353 174.788 168.469 174.3 168.469 173.724C168.469 173.148 168.357 172.664 168.133 172.272C167.909 171.872 167.613 171.576 167.245 171.384C166.877 171.184 166.477 171.084 166.045 171.084C165.613 171.084 165.213 171.184 164.845 171.384C164.477 171.576 164.181 171.872 163.957 172.272C163.741 172.664 163.633 173.148 163.633 173.724C163.633 174.3 163.741 174.788 163.957 175.188C164.181 175.58 164.473 175.876 164.833 176.076C165.201 176.268 165.601 176.364 166.033 176.364ZM176.54 170.448V177H175.7V175.848C175.508 176.256 175.212 176.568 174.812 176.784C174.412 177 173.964 177.108 173.468 177.108C172.684 177.108 172.044 176.868 171.548 176.388C171.052 175.9 170.804 175.196 170.804 174.276V170.448H171.632V174.18C171.632 174.892 171.808 175.436 172.16 175.812C172.52 176.188 173.008 176.376 173.624 176.376C174.256 176.376 174.76 176.176 175.136 175.776C175.512 175.376 175.7 174.788 175.7 174.012V170.448H176.54ZM182.591 168.12V177H181.751V168.12H182.591ZM187.361 177.096C186.745 177.096 186.189 176.96 185.693 176.688C185.205 176.408 184.817 176.016 184.529 175.512C184.249 175 184.109 174.404 184.109 173.724C184.109 173.044 184.253 172.452 184.541 171.948C184.829 171.436 185.221 171.044 185.717 170.772C186.213 170.492 186.769 170.352 187.385 170.352C188.001 170.352 188.557 170.492 189.053 170.772C189.557 171.044 189.949 171.436 190.229 171.948C190.517 172.452 190.661 173.044 190.661 173.724C190.661 174.396 190.517 174.988 190.229 175.5C189.941 176.012 189.545 176.408 189.041 176.688C188.537 176.96 187.977 177.096 187.361 177.096ZM187.361 176.364C187.793 176.364 188.193 176.268 188.561 176.076C188.929 175.876 189.225 175.58 189.449 175.188C189.681 174.788 189.797 174.3 189.797 173.724C189.797 173.148 189.685 172.664 189.461 172.272C189.237 171.872 188.941 171.576 188.573 171.384C188.205 171.184 187.805 171.084 187.373 171.084C186.941 171.084 186.541 171.184 186.173 171.384C185.805 171.576 185.509 171.872 185.285 172.272C185.069 172.664 184.961 173.148 184.961 173.724C184.961 174.3 185.069 174.788 185.285 175.188C185.509 175.58 185.801 175.876 186.161 176.076C186.529 176.268 186.929 176.364 187.361 176.364ZM194.448 177.096C193.696 177.096 193.08 176.924 192.6 176.58C192.128 176.228 191.864 175.752 191.808 175.152H192.672C192.712 175.52 192.884 175.82 193.188 176.052C193.5 176.276 193.916 176.388 194.436 176.388C194.892 176.388 195.248 176.28 195.504 176.064C195.768 175.848 195.9 175.58 195.9 175.26C195.9 175.036 195.828 174.852 195.684 174.708C195.54 174.564 195.356 174.452 195.132 174.372C194.916 174.284 194.62 174.192 194.244 174.096C193.756 173.968 193.36 173.84 193.056 173.712C192.752 173.584 192.492 173.396 192.276 173.148C192.068 172.892 191.964 172.552 191.964 172.128C191.964 171.808 192.06 171.512 192.252 171.24C192.444 170.968 192.716 170.752 193.068 170.592C193.42 170.432 193.82 170.352 194.268 170.352C194.972 170.352 195.54 170.532 195.972 170.892C196.404 171.244 196.636 171.732 196.668 172.356H195.828C195.804 171.972 195.652 171.664 195.372 171.432C195.1 171.192 194.724 171.072 194.244 171.072C193.82 171.072 193.476 171.172 193.212 171.372C192.948 171.572 192.816 171.82 192.816 172.116C192.816 172.372 192.892 172.584 193.044 172.752C193.204 172.912 193.4 173.04 193.632 173.136C193.864 173.224 194.176 173.324 194.568 173.436C195.04 173.564 195.416 173.688 195.696 173.808C195.976 173.928 196.216 174.104 196.416 174.336C196.616 174.568 196.72 174.876 196.728 175.26C196.728 175.612 196.632 175.928 196.44 176.208C196.248 176.48 195.98 176.696 195.636 176.856C195.292 177.016 194.896 177.096 194.448 177.096ZM199.402 171.156V175.224C199.402 175.624 199.478 175.9 199.63 176.052C199.782 176.204 200.05 176.28 200.434 176.28H201.202V177H200.302C199.71 177 199.27 176.864 198.982 176.592C198.694 176.312 198.55 175.856 198.55 175.224V171.156H197.638V170.448H198.55V168.804H199.402V170.448H201.202V171.156H199.402ZM208.208 176.184L210.416 170.448H211.304L208.676 177H207.728L205.1 170.448H206L208.208 176.184ZM212.862 169.212C212.694 169.212 212.55 169.152 212.43 169.032C212.31 168.912 212.25 168.764 212.25 168.588C212.25 168.412 212.31 168.268 212.43 168.156C212.55 168.036 212.694 167.976 212.862 167.976C213.03 167.976 213.174 168.036 213.294 168.156C213.414 168.268 213.474 168.412 213.474 168.588C213.474 168.764 213.414 168.912 213.294 169.032C213.174 169.152 213.03 169.212 212.862 169.212ZM213.282 170.448V177H212.442V170.448H213.282ZM217.441 177.096C216.689 177.096 216.073 176.924 215.593 176.58C215.121 176.228 214.857 175.752 214.801 175.152H215.665C215.705 175.52 215.877 175.82 216.181 176.052C216.493 176.276 216.909 176.388 217.429 176.388C217.885 176.388 218.241 176.28 218.497 176.064C218.761 175.848 218.893 175.58 218.893 175.26C218.893 175.036 218.821 174.852 218.677 174.708C218.533 174.564 218.349 174.452 218.125 174.372C217.909 174.284 217.613 174.192 217.237 174.096C216.749 173.968 216.353 173.84 216.049 173.712C215.745 173.584 215.485 173.396 215.269 173.148C215.061 172.892 214.957 172.552 214.957 172.128C214.957 171.808 215.053 171.512 215.245 171.24C215.437 170.968 215.709 170.752 216.061 170.592C216.413 170.432 216.813 170.352 217.261 170.352C217.965 170.352 218.533 170.532 218.965 170.892C219.397 171.244 219.629 171.732 219.661 172.356H218.821C218.797 171.972 218.645 171.664 218.365 171.432C218.093 171.192 217.717 171.072 217.237 171.072C216.813 171.072 216.469 171.172 216.205 171.372C215.941 171.572 215.809 171.82 215.809 172.116C215.809 172.372 215.885 172.584 216.037 172.752C216.197 172.912 216.393 173.04 216.625 173.136C216.857 173.224 217.169 173.324 217.561 173.436C218.033 173.564 218.409 173.688 218.689 173.808C218.969 173.928 219.209 174.104 219.409 174.336C219.609 174.568 219.713 174.876 219.721 175.26C219.721 175.612 219.625 175.928 219.433 176.208C219.241 176.48 218.973 176.696 218.629 176.856C218.285 177.016 217.889 177.096 217.441 177.096ZM221.722 169.212C221.554 169.212 221.41 169.152 221.29 169.032C221.17 168.912 221.11 168.764 221.11 168.588C221.11 168.412 221.17 168.268 221.29 168.156C221.41 168.036 221.554 167.976 221.722 167.976C221.89 167.976 222.034 168.036 222.154 168.156C222.274 168.268 222.334 168.412 222.334 168.588C222.334 168.764 222.274 168.912 222.154 169.032C222.034 169.152 221.89 169.212 221.722 169.212ZM222.142 170.448V177H221.302V170.448H222.142ZM225.136 171.156V175.224C225.136 175.624 225.212 175.9 225.364 176.052C225.516 176.204 225.784 176.28 226.168 176.28H226.936V177H226.036C225.444 177 225.004 176.864 224.716 176.592C224.428 176.312 224.284 175.856 224.284 175.224V171.156H223.372V170.448H224.284V168.804H225.136V170.448H226.936V171.156H225.136ZM231.189 177.096C230.573 177.096 230.017 176.96 229.521 176.688C229.033 176.408 228.645 176.016 228.357 175.512C228.077 175 227.937 174.404 227.937 173.724C227.937 173.044 228.081 172.452 228.369 171.948C228.657 171.436 229.049 171.044 229.545 170.772C230.041 170.492 230.597 170.352 231.213 170.352C231.829 170.352 232.385 170.492 232.881 170.772C233.385 171.044 233.777 171.436 234.057 171.948C234.345 172.452 234.489 173.044 234.489 173.724C234.489 174.396 234.345 174.988 234.057 175.5C233.769 176.012 233.373 176.408 232.869 176.688C232.365 176.96 231.805 177.096 231.189 177.096ZM231.189 176.364C231.621 176.364 232.021 176.268 232.389 176.076C232.757 175.876 233.053 175.58 233.277 175.188C233.509 174.788 233.625 174.3 233.625 173.724C233.625 173.148 233.513 172.664 233.289 172.272C233.065 171.872 232.769 171.576 232.401 171.384C232.033 171.184 231.633 171.084 231.201 171.084C230.769 171.084 230.369 171.184 230.001 171.384C229.633 171.576 229.337 171.872 229.113 172.272C228.897 172.664 228.789 173.148 228.789 173.724C228.789 174.3 228.897 174.788 229.113 175.188C229.337 175.58 229.629 175.876 229.989 176.076C230.357 176.268 230.757 176.364 231.189 176.364ZM236.861 171.612C237.045 171.204 237.325 170.888 237.701 170.664C238.085 170.44 238.553 170.328 239.105 170.328V171.204H238.877C238.269 171.204 237.781 171.368 237.413 171.696C237.045 172.024 236.861 172.572 236.861 173.34V177H236.021V170.448H236.861V171.612ZM242.624 177.096C241.872 177.096 241.256 176.924 240.776 176.58C240.304 176.228 240.04 175.752 239.984 175.152H240.848C240.888 175.52 241.06 175.82 241.364 176.052C241.676 176.276 242.092 176.388 242.612 176.388C243.068 176.388 243.424 176.28 243.68 176.064C243.944 175.848 244.076 175.58 244.076 175.26C244.076 175.036 244.004 174.852 243.86 174.708C243.716 174.564 243.532 174.452 243.308 174.372C243.092 174.284 242.796 174.192 242.42 174.096C241.932 173.968 241.536 173.84 241.232 173.712C240.928 173.584 240.668 173.396 240.452 173.148C240.244 172.892 240.14 172.552 240.14 172.128C240.14 171.808 240.236 171.512 240.428 171.24C240.62 170.968 240.892 170.752 241.244 170.592C241.596 170.432 241.996 170.352 242.444 170.352C243.148 170.352 243.716 170.532 244.148 170.892C244.58 171.244 244.812 171.732 244.844 172.356H244.004C243.98 171.972 243.828 171.664 243.548 171.432C243.276 171.192 242.9 171.072 242.42 171.072C241.996 171.072 241.652 171.172 241.388 171.372C241.124 171.572 240.992 171.82 240.992 172.116C240.992 172.372 241.068 172.584 241.22 172.752C241.38 172.912 241.576 173.04 241.808 173.136C242.04 173.224 242.352 173.324 242.744 173.436C243.216 173.564 243.592 173.688 243.872 173.808C244.152 173.928 244.392 174.104 244.592 174.336C244.792 174.568 244.896 174.876 244.904 175.26C244.904 175.612 244.808 175.928 244.616 176.208C244.424 176.48 244.156 176.696 243.812 176.856C243.468 177.016 243.072 177.096 242.624 177.096ZM12.0419 189.9C12.2579 189.444 12.5899 189.072 13.0379 188.784C13.4939 188.496 14.0299 188.352 14.6459 188.352C15.2459 188.352 15.7819 188.492 16.2539 188.772C16.7259 189.044 17.0939 189.436 17.3579 189.948C17.6299 190.452 17.7659 191.04 17.7659 191.712C17.7659 192.384 17.6299 192.976 17.3579 193.488C17.0939 194 16.7219 194.396 16.2419 194.676C15.7699 194.956 15.2379 195.096 14.6459 195.096C14.0219 195.096 13.4819 194.956 13.0259 194.676C12.5779 194.388 12.2499 194.016 12.0419 193.56V195H11.2139V186.12H12.0419V189.9ZM16.9139 191.712C16.9139 191.168 16.8059 190.7 16.5899 190.308C16.3819 189.908 16.0939 189.604 15.7259 189.396C15.3579 189.188 14.9419 189.084 14.4779 189.084C14.0299 189.084 13.6179 189.192 13.2419 189.408C12.8739 189.624 12.5819 189.932 12.3659 190.332C12.1499 190.732 12.0419 191.196 12.0419 191.724C12.0419 192.252 12.1499 192.716 12.3659 193.116C12.5819 193.516 12.8739 193.824 13.2419 194.04C13.6179 194.256 14.0299 194.364 14.4779 194.364C14.9419 194.364 15.3579 194.26 15.7259 194.052C16.0939 193.836 16.3819 193.528 16.5899 193.128C16.8059 192.72 16.9139 192.248 16.9139 191.712ZM24.9876 188.448V195H24.1476V193.848C23.9556 194.256 23.6596 194.568 23.2596 194.784C22.8596 195 22.4116 195.108 21.9156 195.108C21.1316 195.108 20.4916 194.868 19.9956 194.388C19.4996 193.9 19.2516 193.196 19.2516 192.276V188.448H20.0796V192.18C20.0796 192.892 20.2556 193.436 20.6076 193.812C20.9676 194.188 21.4556 194.376 22.0716 194.376C22.7036 194.376 23.2076 194.176 23.5836 193.776C23.9596 193.376 24.1476 192.788 24.1476 192.012V188.448H24.9876ZM27.9973 189.156V193.224C27.9973 193.624 28.0733 193.9 28.2253 194.052C28.3773 194.204 28.6453 194.28 29.0293 194.28H29.7973V195H28.8973C28.3053 195 27.8653 194.864 27.5773 194.592C27.2893 194.312 27.1453 193.856 27.1453 193.224V189.156H26.2333V188.448H27.1453V186.804H27.9973V188.448H29.7973V189.156H27.9973ZM34.0916 191.712C34.0916 191.04 34.2236 190.452 34.4876 189.948C34.7596 189.436 35.1316 189.044 35.6036 188.772C36.0836 188.492 36.6236 188.352 37.2236 188.352C37.8476 188.352 38.3836 188.496 38.8316 188.784C39.2876 189.072 39.6156 189.44 39.8156 189.888V188.448H40.6556V195H39.8156V193.548C39.6076 193.996 39.2756 194.368 38.8196 194.664C38.3716 194.952 37.8356 195.096 37.2116 195.096C36.6196 195.096 36.0836 194.956 35.6036 194.676C35.1316 194.396 34.7596 194 34.4876 193.488C34.2236 192.976 34.0916 192.384 34.0916 191.712ZM39.8156 191.724C39.8156 191.196 39.7076 190.732 39.4916 190.332C39.2756 189.932 38.9796 189.624 38.6036 189.408C38.2356 189.192 37.8276 189.084 37.3796 189.084C36.9156 189.084 36.4996 189.188 36.1316 189.396C35.7636 189.604 35.4716 189.908 35.2556 190.308C35.0476 190.7 34.9436 191.168 34.9436 191.712C34.9436 192.248 35.0476 192.72 35.2556 193.128C35.4716 193.528 35.7636 193.836 36.1316 194.052C36.4996 194.26 36.9156 194.364 37.3796 194.364C37.8276 194.364 38.2356 194.256 38.6036 194.04C38.9796 193.824 39.2756 193.516 39.4916 193.116C39.7076 192.716 39.8156 192.252 39.8156 191.724ZM43.4133 186.12V195H42.5733V186.12H43.4133ZM47.5715 195.096C46.8195 195.096 46.2035 194.924 45.7235 194.58C45.2515 194.228 44.9875 193.752 44.9315 193.152H45.7955C45.8355 193.52 46.0075 193.82 46.3115 194.052C46.6235 194.276 47.0395 194.388 47.5595 194.388C48.0155 194.388 48.3715 194.28 48.6275 194.064C48.8915 193.848 49.0235 193.58 49.0235 193.26C49.0235 193.036 48.9515 192.852 48.8075 192.708C48.6635 192.564 48.4795 192.452 48.2555 192.372C48.0395 192.284 47.7435 192.192 47.3675 192.096C46.8795 191.968 46.4835 191.84 46.1795 191.712C45.8755 191.584 45.6155 191.396 45.3995 191.148C45.1915 190.892 45.0875 190.552 45.0875 190.128C45.0875 189.808 45.1835 189.512 45.3755 189.24C45.5675 188.968 45.8395 188.752 46.1915 188.592C46.5435 188.432 46.9435 188.352 47.3915 188.352C48.0955 188.352 48.6635 188.532 49.0955 188.892C49.5275 189.244 49.7595 189.732 49.7915 190.356H48.9515C48.9275 189.972 48.7755 189.664 48.4955 189.432C48.2235 189.192 47.8475 189.072 47.3675 189.072C46.9435 189.072 46.5995 189.172 46.3355 189.372C46.0715 189.572 45.9395 189.82 45.9395 190.116C45.9395 190.372 46.0155 190.584 46.1675 190.752C46.3275 190.912 46.5235 191.04 46.7555 191.136C46.9875 191.224 47.2995 191.324 47.6915 191.436C48.1635 191.564 48.5395 191.688 48.8195 191.808C49.0995 191.928 49.3395 192.104 49.5395 192.336C49.7395 192.568 49.8435 192.876 49.8515 193.26C49.8515 193.612 49.7555 193.928 49.5635 194.208C49.3715 194.48 49.1035 194.696 48.7595 194.856C48.4155 195.016 48.0195 195.096 47.5715 195.096ZM54.3007 195.096C53.6847 195.096 53.1287 194.96 52.6327 194.688C52.1447 194.408 51.7567 194.016 51.4687 193.512C51.1887 193 51.0487 192.404 51.0487 191.724C51.0487 191.044 51.1927 190.452 51.4807 189.948C51.7687 189.436 52.1607 189.044 52.6567 188.772C53.1527 188.492 53.7087 188.352 54.3247 188.352C54.9407 188.352 55.4967 188.492 55.9927 188.772C56.4967 189.044 56.8887 189.436 57.1687 189.948C57.4567 190.452 57.6007 191.044 57.6007 191.724C57.6007 192.396 57.4567 192.988 57.1687 193.5C56.8807 194.012 56.4847 194.408 55.9807 194.688C55.4767 194.96 54.9167 195.096 54.3007 195.096ZM54.3007 194.364C54.7327 194.364 55.1327 194.268 55.5007 194.076C55.8687 193.876 56.1647 193.58 56.3887 193.188C56.6207 192.788 56.7367 192.3 56.7367 191.724C56.7367 191.148 56.6247 190.664 56.4007 190.272C56.1767 189.872 55.8807 189.576 55.5127 189.384C55.1447 189.184 54.7447 189.084 54.3127 189.084C53.8807 189.084 53.4807 189.184 53.1127 189.384C52.7447 189.576 52.4487 189.872 52.2247 190.272C52.0087 190.664 51.9007 191.148 51.9007 191.724C51.9007 192.3 52.0087 192.788 52.2247 193.188C52.4487 193.58 52.7407 193.876 53.1007 194.076C53.4687 194.268 53.8687 194.364 54.3007 194.364ZM62.0408 191.712C62.0408 191.04 62.1768 190.452 62.4488 189.948C62.7208 189.436 63.0928 189.044 63.5648 188.772C64.0448 188.492 64.5848 188.352 65.1848 188.352C65.7608 188.352 66.2808 188.492 66.7448 188.772C67.2088 189.052 67.5488 189.416 67.7648 189.864V186.12H68.6048V195H67.7648V193.536C67.5648 193.992 67.2368 194.368 66.7808 194.664C66.3248 194.952 65.7888 195.096 65.1728 195.096C64.5728 195.096 64.0328 194.956 63.5528 194.676C63.0808 194.396 62.7088 194 62.4368 193.488C62.1728 192.976 62.0408 192.384 62.0408 191.712ZM67.7648 191.724C67.7648 191.196 67.6568 190.732 67.4408 190.332C67.2248 189.932 66.9288 189.624 66.5528 189.408C66.1848 189.192 65.7768 189.084 65.3288 189.084C64.8648 189.084 64.4488 189.188 64.0808 189.396C63.7128 189.604 63.4208 189.908 63.2048 190.308C62.9968 190.7 62.8928 191.168 62.8928 191.712C62.8928 192.248 62.9968 192.72 63.2048 193.128C63.4208 193.528 63.7128 193.836 64.0808 194.052C64.4488 194.26 64.8648 194.364 65.3288 194.364C65.7768 194.364 66.1848 194.256 66.5528 194.04C66.9288 193.824 67.2248 193.516 67.4408 193.116C67.6568 192.716 67.7648 192.252 67.7648 191.724ZM70.1385 191.712C70.1385 191.04 70.2705 190.452 70.5345 189.948C70.8065 189.436 71.1785 189.044 71.6505 188.772C72.1305 188.492 72.6705 188.352 73.2705 188.352C73.8945 188.352 74.4305 188.496 74.8785 188.784C75.3345 189.072 75.6625 189.44 75.8625 189.888V188.448H76.7025V195H75.8625V193.548C75.6545 193.996 75.3225 194.368 74.8665 194.664C74.4185 194.952 73.8825 195.096 73.2585 195.096C72.6665 195.096 72.1305 194.956 71.6505 194.676C71.1785 194.396 70.8065 194 70.5345 193.488C70.2705 192.976 70.1385 192.384 70.1385 191.712ZM75.8625 191.724C75.8625 191.196 75.7545 190.732 75.5385 190.332C75.3225 189.932 75.0265 189.624 74.6505 189.408C74.2825 189.192 73.8745 189.084 73.4265 189.084C72.9625 189.084 72.5465 189.188 72.1785 189.396C71.8105 189.604 71.5185 189.908 71.3025 190.308C71.0945 190.7 70.9905 191.168 70.9905 191.712C70.9905 192.248 71.0945 192.72 71.3025 193.128C71.5185 193.528 71.8105 193.836 72.1785 194.052C72.5465 194.26 72.9625 194.364 73.4265 194.364C73.8745 194.364 74.2825 194.256 74.6505 194.04C75.0265 193.824 75.3225 193.516 75.5385 193.116C75.7545 192.716 75.8625 192.252 75.8625 191.724ZM86.4202 188.328C87.1882 188.328 87.8122 188.572 88.2922 189.06C88.7802 189.54 89.0242 190.24 89.0242 191.16V195H88.1962V191.256C88.1962 190.544 88.0242 190 87.6802 189.624C87.3362 189.248 86.8682 189.06 86.2762 189.06C85.6602 189.06 85.1682 189.264 84.8002 189.672C84.4322 190.08 84.2482 190.672 84.2482 191.448V195H83.4202V191.256C83.4202 190.544 83.2482 190 82.9042 189.624C82.5602 189.248 82.0882 189.06 81.4882 189.06C80.8722 189.06 80.3802 189.264 80.0122 189.672C79.6442 190.08 79.4602 190.672 79.4602 191.448V195H78.6202V188.448H79.4602V189.576C79.6682 189.168 79.9642 188.86 80.3482 188.652C80.7322 188.436 81.1602 188.328 81.6322 188.328C82.2002 188.328 82.6962 188.464 83.1202 188.736C83.5522 189.008 83.8642 189.408 84.0562 189.936C84.2322 189.416 84.5322 189.02 84.9562 188.748C85.3882 188.468 85.8762 188.328 86.4202 188.328ZM90.5057 191.712C90.5057 191.04 90.6377 190.452 90.9017 189.948C91.1737 189.436 91.5457 189.044 92.0177 188.772C92.4977 188.492 93.0377 188.352 93.6377 188.352C94.2617 188.352 94.7977 188.496 95.2457 188.784C95.7017 189.072 96.0297 189.44 96.2297 189.888V188.448H97.0697V195H96.2297V193.548C96.0217 193.996 95.6897 194.368 95.2337 194.664C94.7857 194.952 94.2497 195.096 93.6257 195.096C93.0337 195.096 92.4977 194.956 92.0177 194.676C91.5457 194.396 91.1737 194 90.9017 193.488C90.6377 192.976 90.5057 192.384 90.5057 191.712ZM96.2297 191.724C96.2297 191.196 96.1217 190.732 95.9057 190.332C95.6897 189.932 95.3937 189.624 95.0177 189.408C94.6497 189.192 94.2417 189.084 93.7937 189.084C93.3297 189.084 92.9137 189.188 92.5457 189.396C92.1777 189.604 91.8857 189.908 91.6697 190.308C91.4617 190.7 91.3577 191.168 91.3577 191.712C91.3577 192.248 91.4617 192.72 91.6697 193.128C91.8857 193.528 92.1777 193.836 92.5457 194.052C92.9137 194.26 93.3297 194.364 93.7937 194.364C94.2417 194.364 94.6497 194.256 95.0177 194.04C95.3937 193.824 95.6897 193.516 95.9057 193.116C96.1217 192.716 96.2297 192.252 96.2297 191.724ZM101.735 188.352C102.351 188.352 102.887 188.496 103.343 188.784C103.799 189.072 104.127 189.436 104.327 189.876V188.448H105.167V195.168C105.167 195.768 105.035 196.3 104.771 196.764C104.515 197.228 104.155 197.584 103.691 197.832C103.227 198.088 102.699 198.216 102.107 198.216C101.267 198.216 100.567 198.016 100.007 197.616C99.4553 197.216 99.1113 196.672 98.9753 195.984H99.8033C99.9473 196.44 100.219 196.804 100.619 197.076C101.027 197.348 101.523 197.484 102.107 197.484C102.531 197.484 102.911 197.392 103.247 197.208C103.583 197.032 103.847 196.768 104.039 196.416C104.231 196.064 104.327 195.648 104.327 195.168V193.548C104.119 193.996 103.787 194.368 103.331 194.664C102.883 194.952 102.351 195.096 101.735 195.096C101.135 195.096 100.595 194.956 100.115 194.676C99.6433 194.396 99.2713 194 98.9993 193.488C98.7353 192.976 98.6033 192.384 98.6033 191.712C98.6033 191.04 98.7353 190.452 98.9993 189.948C99.2713 189.436 99.6433 189.044 100.115 188.772C100.595 188.492 101.135 188.352 101.735 188.352ZM104.327 191.724C104.327 191.196 104.219 190.732 104.003 190.332C103.787 189.932 103.491 189.624 103.115 189.408C102.747 189.192 102.339 189.084 101.891 189.084C101.427 189.084 101.011 189.188 100.643 189.396C100.275 189.604 99.9833 189.908 99.7673 190.308C99.5593 190.7 99.4553 191.168 99.4553 191.712C99.4553 192.248 99.5593 192.72 99.7673 193.128C99.9833 193.528 100.275 193.836 100.643 194.052C101.011 194.26 101.427 194.364 101.891 194.364C102.339 194.364 102.747 194.256 103.115 194.04C103.491 193.824 103.787 193.516 104.003 193.116C104.219 192.716 104.327 192.252 104.327 191.724ZM113.013 191.388C113.013 191.676 113.005 191.896 112.989 192.048H107.553C107.577 192.544 107.697 192.968 107.913 193.32C108.129 193.672 108.413 193.94 108.765 194.124C109.117 194.3 109.501 194.388 109.917 194.388C110.461 194.388 110.917 194.256 111.285 193.992C111.661 193.728 111.909 193.372 112.029 192.924H112.917C112.757 193.564 112.413 194.088 111.885 194.496C111.365 194.896 110.709 195.096 109.917 195.096C109.301 195.096 108.749 194.96 108.261 194.688C107.773 194.408 107.389 194.016 107.109 193.512C106.837 193 106.701 192.404 106.701 191.724C106.701 191.044 106.837 190.448 107.109 189.936C107.381 189.424 107.761 189.032 108.249 188.76C108.737 188.488 109.293 188.352 109.917 188.352C110.541 188.352 111.085 188.488 111.549 188.76C112.021 189.032 112.381 189.4 112.629 189.864C112.885 190.32 113.013 190.828 113.013 191.388ZM112.161 191.364C112.169 190.876 112.069 190.46 111.861 190.116C111.661 189.772 111.385 189.512 111.033 189.336C110.681 189.16 110.297 189.072 109.881 189.072C109.257 189.072 108.725 189.272 108.285 189.672C107.845 190.072 107.601 190.636 107.553 191.364H112.161ZM116.806 195.096C116.054 195.096 115.438 194.924 114.958 194.58C114.486 194.228 114.222 193.752 114.166 193.152H115.03C115.07 193.52 115.242 193.82 115.546 194.052C115.858 194.276 116.274 194.388 116.794 194.388C117.25 194.388 117.606 194.28 117.862 194.064C118.126 193.848 118.258 193.58 118.258 193.26C118.258 193.036 118.186 192.852 118.042 192.708C117.898 192.564 117.714 192.452 117.49 192.372C117.274 192.284 116.978 192.192 116.602 192.096C116.114 191.968 115.718 191.84 115.414 191.712C115.11 191.584 114.85 191.396 114.634 191.148C114.426 190.892 114.322 190.552 114.322 190.128C114.322 189.808 114.418 189.512 114.61 189.24C114.802 188.968 115.074 188.752 115.426 188.592C115.778 188.432 116.178 188.352 116.626 188.352C117.33 188.352 117.898 188.532 118.33 188.892C118.762 189.244 118.994 189.732 119.026 190.356H118.186C118.162 189.972 118.01 189.664 117.73 189.432C117.458 189.192 117.082 189.072 116.602 189.072C116.178 189.072 115.834 189.172 115.57 189.372C115.306 189.572 115.174 189.82 115.174 190.116C115.174 190.372 115.25 190.584 115.402 190.752C115.562 190.912 115.758 191.04 115.99 191.136C116.222 191.224 116.534 191.324 116.926 191.436C117.398 191.564 117.774 191.688 118.054 191.808C118.334 191.928 118.574 192.104 118.774 192.336C118.974 192.568 119.078 192.876 119.086 193.26C119.086 193.612 118.99 193.928 118.798 194.208C118.606 194.48 118.338 194.696 117.994 194.856C117.65 195.016 117.254 195.096 116.806 195.096ZM129.36 188.448L125.472 198.084H124.596L125.868 194.964L123.18 188.448H124.104L126.336 194.04L128.496 188.448H129.36ZM133.367 195.096C132.751 195.096 132.195 194.96 131.699 194.688C131.211 194.408 130.823 194.016 130.535 193.512C130.255 193 130.115 192.404 130.115 191.724C130.115 191.044 130.259 190.452 130.547 189.948C130.835 189.436 131.227 189.044 131.723 188.772C132.219 188.492 132.775 188.352 133.391 188.352C134.007 188.352 134.563 188.492 135.059 188.772C135.563 189.044 135.955 189.436 136.235 189.948C136.523 190.452 136.667 191.044 136.667 191.724C136.667 192.396 136.523 192.988 136.235 193.5C135.947 194.012 135.551 194.408 135.047 194.688C134.543 194.96 133.983 195.096 133.367 195.096ZM133.367 194.364C133.799 194.364 134.199 194.268 134.567 194.076C134.935 193.876 135.231 193.58 135.455 193.188C135.687 192.788 135.803 192.3 135.803 191.724C135.803 191.148 135.691 190.664 135.467 190.272C135.243 189.872 134.947 189.576 134.579 189.384C134.211 189.184 133.811 189.084 133.379 189.084C132.947 189.084 132.547 189.184 132.179 189.384C131.811 189.576 131.515 189.872 131.291 190.272C131.075 190.664 130.967 191.148 130.967 191.724C130.967 192.3 131.075 192.788 131.291 193.188C131.515 193.58 131.807 193.876 132.167 194.076C132.535 194.268 132.935 194.364 133.367 194.364ZM143.874 188.448V195H143.034V193.848C142.842 194.256 142.546 194.568 142.146 194.784C141.746 195 141.298 195.108 140.802 195.108C140.018 195.108 139.378 194.868 138.882 194.388C138.386 193.9 138.138 193.196 138.138 192.276V188.448H138.966V192.18C138.966 192.892 139.142 193.436 139.494 193.812C139.854 194.188 140.342 194.376 140.958 194.376C141.59 194.376 142.094 194.176 142.47 193.776C142.846 193.376 143.034 192.788 143.034 192.012V188.448H143.874ZM146.632 189.612C146.816 189.204 147.096 188.888 147.472 188.664C147.856 188.44 148.324 188.328 148.876 188.328V189.204H148.648C148.04 189.204 147.552 189.368 147.184 189.696C146.816 190.024 146.632 190.572 146.632 191.34V195H145.792V188.448H146.632V189.612ZM154.273 189.612C154.457 189.204 154.737 188.888 155.113 188.664C155.497 188.44 155.965 188.328 156.517 188.328V189.204H156.289C155.681 189.204 155.193 189.368 154.825 189.696C154.457 190.024 154.273 190.572 154.273 191.34V195H153.433V188.448H154.273V189.612ZM163.708 191.388C163.708 191.676 163.7 191.896 163.684 192.048H158.248C158.272 192.544 158.392 192.968 158.608 193.32C158.824 193.672 159.108 193.94 159.46 194.124C159.812 194.3 160.196 194.388 160.612 194.388C161.156 194.388 161.612 194.256 161.98 193.992C162.356 193.728 162.604 193.372 162.724 192.924H163.612C163.452 193.564 163.108 194.088 162.58 194.496C162.06 194.896 161.404 195.096 160.612 195.096C159.996 195.096 159.444 194.96 158.956 194.688C158.468 194.408 158.084 194.016 157.804 193.512C157.532 193 157.396 192.404 157.396 191.724C157.396 191.044 157.532 190.448 157.804 189.936C158.076 189.424 158.456 189.032 158.944 188.76C159.432 188.488 159.988 188.352 160.612 188.352C161.236 188.352 161.78 188.488 162.244 188.76C162.716 189.032 163.076 189.4 163.324 189.864C163.58 190.32 163.708 190.828 163.708 191.388ZM162.856 191.364C162.864 190.876 162.764 190.46 162.556 190.116C162.356 189.772 162.08 189.512 161.728 189.336C161.376 189.16 160.992 189.072 160.576 189.072C159.952 189.072 159.42 189.272 158.98 189.672C158.54 190.072 158.296 190.636 158.248 191.364H162.856ZM166.073 189.888C166.281 189.448 166.609 189.084 167.057 188.796C167.513 188.5 168.053 188.352 168.677 188.352C169.269 188.352 169.801 188.492 170.273 188.772C170.753 189.044 171.125 189.436 171.389 189.948C171.661 190.452 171.797 191.04 171.797 191.712C171.797 192.384 171.661 192.976 171.389 193.488C171.125 194 170.753 194.396 170.273 194.676C169.801 194.956 169.269 195.096 168.677 195.096C168.061 195.096 167.525 194.952 167.069 194.664C166.613 194.368 166.281 194 166.073 193.56V198.096H165.245V188.448H166.073V189.888ZM170.945 191.712C170.945 191.168 170.837 190.7 170.621 190.308C170.413 189.908 170.125 189.604 169.757 189.396C169.389 189.188 168.973 189.084 168.509 189.084C168.061 189.084 167.649 189.192 167.273 189.408C166.905 189.624 166.613 189.932 166.397 190.332C166.181 190.732 166.073 191.196 166.073 191.724C166.073 192.252 166.181 192.716 166.397 193.116C166.613 193.516 166.905 193.824 167.273 194.04C167.649 194.256 168.061 194.364 168.509 194.364C168.973 194.364 169.389 194.26 169.757 194.052C170.125 193.836 170.413 193.528 170.621 193.128C170.837 192.72 170.945 192.248 170.945 191.712ZM179.019 188.448V195H178.179V193.848C177.987 194.256 177.691 194.568 177.291 194.784C176.891 195 176.443 195.108 175.947 195.108C175.163 195.108 174.523 194.868 174.027 194.388C173.531 193.9 173.283 193.196 173.283 192.276V188.448H174.111V192.18C174.111 192.892 174.287 193.436 174.639 193.812C174.999 194.188 175.487 194.376 176.103 194.376C176.735 194.376 177.239 194.176 177.615 193.776C177.991 193.376 178.179 192.788 178.179 192.012V188.448H179.019ZM182.029 189.156V193.224C182.029 193.624 182.105 193.9 182.257 194.052C182.409 194.204 182.677 194.28 183.061 194.28H183.829V195H182.929C182.337 195 181.897 194.864 181.609 194.592C181.321 194.312 181.177 193.856 181.177 193.224V189.156H180.265V188.448H181.177V186.804H182.029V188.448H183.829V189.156H182.029ZM184.83 191.712C184.83 191.04 184.962 190.452 185.226 189.948C185.498 189.436 185.87 189.044 186.342 188.772C186.822 188.492 187.362 188.352 187.962 188.352C188.586 188.352 189.122 188.496 189.57 188.784C190.026 189.072 190.354 189.44 190.554 189.888V188.448H191.394V195H190.554V193.548C190.346 193.996 190.014 194.368 189.558 194.664C189.11 194.952 188.574 195.096 187.95 195.096C187.358 195.096 186.822 194.956 186.342 194.676C185.87 194.396 185.498 194 185.226 193.488C184.962 192.976 184.83 192.384 184.83 191.712ZM190.554 191.724C190.554 191.196 190.446 190.732 190.23 190.332C190.014 189.932 189.718 189.624 189.342 189.408C188.974 189.192 188.566 189.084 188.118 189.084C187.654 189.084 187.238 189.188 186.87 189.396C186.502 189.604 186.21 189.908 185.994 190.308C185.786 190.7 185.682 191.168 185.682 191.712C185.682 192.248 185.786 192.72 185.994 193.128C186.21 193.528 186.502 193.836 186.87 194.052C187.238 194.26 187.654 194.364 188.118 194.364C188.566 194.364 188.974 194.256 189.342 194.04C189.718 193.824 190.014 193.516 190.23 193.116C190.446 192.716 190.554 192.252 190.554 191.724ZM194.404 189.156V193.224C194.404 193.624 194.48 193.9 194.632 194.052C194.784 194.204 195.052 194.28 195.436 194.28H196.204V195H195.304C194.712 195 194.272 194.864 193.984 194.592C193.696 194.312 193.552 193.856 193.552 193.224V189.156H192.64V188.448H193.552V186.804H194.404V188.448H196.204V189.156H194.404ZM198.009 187.212C197.841 187.212 197.697 187.152 197.577 187.032C197.457 186.912 197.397 186.764 197.397 186.588C197.397 186.412 197.457 186.268 197.577 186.156C197.697 186.036 197.841 185.976 198.009 185.976C198.177 185.976 198.321 186.036 198.441 186.156C198.561 186.268 198.621 186.412 198.621 186.588C198.621 186.764 198.561 186.912 198.441 187.032C198.321 187.152 198.177 187.212 198.009 187.212ZM198.429 188.448V195H197.589V188.448H198.429ZM203.199 195.096C202.583 195.096 202.027 194.96 201.531 194.688C201.043 194.408 200.655 194.016 200.367 193.512C200.087 193 199.947 192.404 199.947 191.724C199.947 191.044 200.091 190.452 200.379 189.948C200.667 189.436 201.059 189.044 201.555 188.772C202.051 188.492 202.607 188.352 203.223 188.352C203.839 188.352 204.395 188.492 204.891 188.772C205.395 189.044 205.787 189.436 206.067 189.948C206.355 190.452 206.499 191.044 206.499 191.724C206.499 192.396 206.355 192.988 206.067 193.5C205.779 194.012 205.383 194.408 204.879 194.688C204.375 194.96 203.815 195.096 203.199 195.096ZM203.199 194.364C203.631 194.364 204.031 194.268 204.399 194.076C204.767 193.876 205.063 193.58 205.287 193.188C205.519 192.788 205.635 192.3 205.635 191.724C205.635 191.148 205.523 190.664 205.299 190.272C205.075 189.872 204.779 189.576 204.411 189.384C204.043 189.184 203.643 189.084 203.211 189.084C202.779 189.084 202.379 189.184 202.011 189.384C201.643 189.576 201.347 189.872 201.123 190.272C200.907 190.664 200.799 191.148 200.799 191.724C200.799 192.3 200.907 192.788 201.123 193.188C201.347 193.58 201.639 193.876 201.999 194.076C202.367 194.268 202.767 194.364 203.199 194.364ZM211.102 188.328C211.886 188.328 212.526 188.572 213.022 189.06C213.518 189.54 213.766 190.24 213.766 191.16V195H212.938V191.256C212.938 190.544 212.758 190 212.398 189.624C212.046 189.248 211.562 189.06 210.946 189.06C210.314 189.06 209.81 189.26 209.434 189.66C209.058 190.06 208.87 190.648 208.87 191.424V195H208.03V188.448H208.87V189.564C209.078 189.164 209.378 188.86 209.77 188.652C210.162 188.436 210.606 188.328 211.102 188.328ZM218.533 191.712C218.533 191.04 218.665 190.452 218.929 189.948C219.201 189.436 219.573 189.044 220.045 188.772C220.525 188.492 221.065 188.352 221.665 188.352C222.289 188.352 222.825 188.496 223.273 188.784C223.729 189.072 224.057 189.44 224.257 189.888V188.448H225.097V195H224.257V193.548C224.049 193.996 223.717 194.368 223.261 194.664C222.813 194.952 222.277 195.096 221.653 195.096C221.061 195.096 220.525 194.956 220.045 194.676C219.573 194.396 219.201 194 218.929 193.488C218.665 192.976 218.533 192.384 218.533 191.712ZM224.257 191.724C224.257 191.196 224.149 190.732 223.933 190.332C223.717 189.932 223.421 189.624 223.045 189.408C222.677 189.192 222.269 189.084 221.821 189.084C221.357 189.084 220.941 189.188 220.573 189.396C220.205 189.604 219.913 189.908 219.697 190.308C219.489 190.7 219.385 191.168 219.385 191.712C219.385 192.248 219.489 192.72 219.697 193.128C219.913 193.528 220.205 193.836 220.573 194.052C220.941 194.26 221.357 194.364 221.821 194.364C222.269 194.364 222.677 194.256 223.045 194.04C223.421 193.824 223.717 193.516 223.933 193.116C224.149 192.716 224.257 192.252 224.257 191.724ZM230.087 188.328C230.871 188.328 231.511 188.572 232.007 189.06C232.503 189.54 232.751 190.24 232.751 191.16V195H231.923V191.256C231.923 190.544 231.743 190 231.383 189.624C231.031 189.248 230.547 189.06 229.931 189.06C229.299 189.06 228.795 189.26 228.419 189.66C228.043 190.06 227.855 190.648 227.855 191.424V195H227.015V188.448H227.855V189.564C228.063 189.164 228.363 188.86 228.755 188.652C229.147 188.436 229.591 188.328 230.087 188.328ZM234.224 191.712C234.224 191.04 234.36 190.452 234.632 189.948C234.904 189.436 235.276 189.044 235.748 188.772C236.228 188.492 236.768 188.352 237.368 188.352C237.944 188.352 238.464 188.492 238.928 188.772C239.392 189.052 239.732 189.416 239.948 189.864V186.12H240.788V195H239.948V193.536C239.748 193.992 239.42 194.368 238.964 194.664C238.508 194.952 237.972 195.096 237.356 195.096C236.756 195.096 236.216 194.956 235.736 194.676C235.264 194.396 234.892 194 234.62 193.488C234.356 192.976 234.224 192.384 234.224 191.712ZM239.948 191.724C239.948 191.196 239.84 190.732 239.624 190.332C239.408 189.932 239.112 189.624 238.736 189.408C238.368 189.192 237.96 189.084 237.512 189.084C237.048 189.084 236.632 189.188 236.264 189.396C235.896 189.604 235.604 189.908 235.388 190.308C235.18 190.7 235.076 191.168 235.076 191.712C235.076 192.248 235.18 192.72 235.388 193.128C235.604 193.528 235.896 193.836 236.264 194.052C236.632 194.26 237.048 194.364 237.512 194.364C237.96 194.364 238.368 194.256 238.736 194.04C239.112 193.824 239.408 193.516 239.624 193.116C239.84 192.716 239.948 192.252 239.948 191.724ZM58.6867 213.096C57.9347 213.096 57.3187 212.924 56.8387 212.58C56.3667 212.228 56.1027 211.752 56.0467 211.152H56.9107C56.9507 211.52 57.1227 211.82 57.4267 212.052C57.7387 212.276 58.1547 212.388 58.6747 212.388C59.1307 212.388 59.4867 212.28 59.7427 212.064C60.0067 211.848 60.1387 211.58 60.1387 211.26C60.1387 211.036 60.0667 210.852 59.9227 210.708C59.7787 210.564 59.5947 210.452 59.3707 210.372C59.1547 210.284 58.8587 210.192 58.4827 210.096C57.9947 209.968 57.5987 209.84 57.2947 209.712C56.9907 209.584 56.7307 209.396 56.5147 209.148C56.3067 208.892 56.2027 208.552 56.2027 208.128C56.2027 207.808 56.2987 207.512 56.4907 207.24C56.6827 206.968 56.9547 206.752 57.3067 206.592C57.6587 206.432 58.0587 206.352 58.5067 206.352C59.2107 206.352 59.7787 206.532 60.2107 206.892C60.6427 207.244 60.8747 207.732 60.9067 208.356H60.0667C60.0427 207.972 59.8907 207.664 59.6107 207.432C59.3387 207.192 58.9627 207.072 58.4827 207.072C58.0587 207.072 57.7147 207.172 57.4507 207.372C57.1867 207.572 57.0547 207.82 57.0547 208.116C57.0547 208.372 57.1307 208.584 57.2827 208.752C57.4427 208.912 57.6387 209.04 57.8707 209.136C58.1027 209.224 58.4147 209.324 58.8067 209.436C59.2787 209.564 59.6547 209.688 59.9347 209.808C60.2147 209.928 60.4547 210.104 60.6547 210.336C60.8547 210.568 60.9587 210.876 60.9667 211.26C60.9667 211.612 60.8707 211.928 60.6787 212.208C60.4867 212.48 60.2187 212.696 59.8747 212.856C59.5307 213.016 59.1347 213.096 58.6867 213.096ZM68.4759 209.388C68.4759 209.676 68.4679 209.896 68.4519 210.048H63.0159C63.0399 210.544 63.1599 210.968 63.3759 211.32C63.5919 211.672 63.8759 211.94 64.2279 212.124C64.5799 212.3 64.9639 212.388 65.3799 212.388C65.9239 212.388 66.3799 212.256 66.7479 211.992C67.1239 211.728 67.3719 211.372 67.4919 210.924H68.3799C68.2199 211.564 67.8759 212.088 67.3479 212.496C66.8279 212.896 66.1719 213.096 65.3799 213.096C64.7639 213.096 64.2119 212.96 63.7239 212.688C63.2359 212.408 62.8519 212.016 62.5719 211.512C62.2999 211 62.1639 210.404 62.1639 209.724C62.1639 209.044 62.2999 208.448 62.5719 207.936C62.8439 207.424 63.2239 207.032 63.7119 206.76C64.1999 206.488 64.7559 206.352 65.3799 206.352C66.0039 206.352 66.5479 206.488 67.0119 206.76C67.4839 207.032 67.8439 207.4 68.0919 207.864C68.3479 208.32 68.4759 208.828 68.4759 209.388ZM67.6239 209.364C67.6319 208.876 67.5319 208.46 67.3239 208.116C67.1239 207.772 66.8479 207.512 66.4959 207.336C66.1439 207.16 65.7599 207.072 65.3439 207.072C64.7199 207.072 64.1879 207.272 63.7479 207.672C63.3079 208.072 63.0639 208.636 63.0159 209.364H67.6239ZM69.6287 209.712C69.6287 209.04 69.7607 208.452 70.0247 207.948C70.2967 207.436 70.6687 207.044 71.1407 206.772C71.6207 206.492 72.1607 206.352 72.7607 206.352C73.3847 206.352 73.9207 206.496 74.3687 206.784C74.8247 207.072 75.1527 207.44 75.3527 207.888V206.448H76.1927V213H75.3527V211.548C75.1447 211.996 74.8127 212.368 74.3567 212.664C73.9087 212.952 73.3727 213.096 72.7487 213.096C72.1567 213.096 71.6207 212.956 71.1407 212.676C70.6687 212.396 70.2967 212 70.0247 211.488C69.7607 210.976 69.6287 210.384 69.6287 209.712ZM75.3527 209.724C75.3527 209.196 75.2447 208.732 75.0287 208.332C74.8127 207.932 74.5167 207.624 74.1407 207.408C73.7727 207.192 73.3647 207.084 72.9167 207.084C72.4527 207.084 72.0367 207.188 71.6687 207.396C71.3007 207.604 71.0087 207.908 70.7927 208.308C70.5847 208.7 70.4807 209.168 70.4807 209.712C70.4807 210.248 70.5847 210.72 70.7927 211.128C71.0087 211.528 71.3007 211.836 71.6687 212.052C72.0367 212.26 72.4527 212.364 72.9167 212.364C73.3647 212.364 73.7727 212.256 74.1407 212.04C74.5167 211.824 74.8127 211.516 75.0287 211.116C75.2447 210.716 75.3527 210.252 75.3527 209.724ZM78.9504 207.612C79.1344 207.204 79.4144 206.888 79.7904 206.664C80.1744 206.44 80.6424 206.328 81.1944 206.328V207.204H80.9664C80.3584 207.204 79.8704 207.368 79.5024 207.696C79.1344 208.024 78.9504 208.572 78.9504 209.34V213H78.1104V206.448H78.9504V207.612ZM82.074 209.724C82.074 209.044 82.21 208.452 82.482 207.948C82.754 207.436 83.13 207.044 83.61 206.772C84.09 206.492 84.638 206.352 85.254 206.352C86.062 206.352 86.726 206.552 87.246 206.952C87.774 207.352 88.114 207.896 88.266 208.584H87.366C87.254 208.112 87.01 207.744 86.634 207.48C86.266 207.208 85.806 207.072 85.254 207.072C84.814 207.072 84.418 207.172 84.066 207.372C83.714 207.572 83.434 207.872 83.226 208.272C83.026 208.664 82.926 209.148 82.926 209.724C82.926 210.3 83.026 210.788 83.226 211.188C83.434 211.588 83.714 211.888 84.066 212.088C84.418 212.288 84.814 212.388 85.254 212.388C85.806 212.388 86.266 212.256 86.634 211.992C87.01 211.72 87.254 211.344 87.366 210.864H88.266C88.114 211.536 87.774 212.076 87.246 212.484C86.718 212.892 86.054 213.096 85.254 213.096C84.638 213.096 84.09 212.96 83.61 212.688C83.13 212.408 82.754 212.016 82.482 211.512C82.21 211 82.074 210.404 82.074 209.724ZM92.9374 206.328C93.4334 206.328 93.8774 206.432 94.2694 206.64C94.6694 206.848 94.9814 207.168 95.2054 207.6C95.4374 208.024 95.5534 208.544 95.5534 209.16V213H94.7254V209.256C94.7254 208.544 94.5454 208 94.1854 207.624C93.8334 207.248 93.3494 207.06 92.7334 207.06C92.1014 207.06 91.5974 207.26 91.2214 207.66C90.8454 208.06 90.6574 208.648 90.6574 209.424V213H89.8174V204.12H90.6574V207.564C90.8654 207.172 91.1694 206.868 91.5694 206.652C91.9774 206.436 92.4334 206.328 92.9374 206.328ZM106.632 209.388C106.632 209.676 106.624 209.896 106.608 210.048H101.172C101.196 210.544 101.316 210.968 101.532 211.32C101.748 211.672 102.032 211.94 102.384 212.124C102.736 212.3 103.12 212.388 103.536 212.388C104.08 212.388 104.536 212.256 104.904 211.992C105.28 211.728 105.528 211.372 105.648 210.924H106.536C106.376 211.564 106.032 212.088 105.504 212.496C104.984 212.896 104.328 213.096 103.536 213.096C102.92 213.096 102.368 212.96 101.88 212.688C101.392 212.408 101.008 212.016 100.728 211.512C100.456 211 100.32 210.404 100.32 209.724C100.32 209.044 100.456 208.448 100.728 207.936C101 207.424 101.38 207.032 101.868 206.76C102.356 206.488 102.912 206.352 103.536 206.352C104.16 206.352 104.704 206.488 105.168 206.76C105.64 207.032 106 207.4 106.248 207.864C106.504 208.32 106.632 208.828 106.632 209.388ZM105.78 209.364C105.788 208.876 105.688 208.46 105.48 208.116C105.28 207.772 105.004 207.512 104.652 207.336C104.3 207.16 103.916 207.072 103.5 207.072C102.876 207.072 102.344 207.272 101.904 207.672C101.464 208.072 101.22 208.636 101.172 209.364H105.78ZM111.241 206.328C112.025 206.328 112.665 206.572 113.161 207.06C113.657 207.54 113.905 208.24 113.905 209.16V213H113.077V209.256C113.077 208.544 112.897 208 112.537 207.624C112.185 207.248 111.701 207.06 111.085 207.06C110.453 207.06 109.949 207.26 109.573 207.66C109.197 208.06 109.009 208.648 109.009 209.424V213H108.169V206.448H109.009V207.564C109.217 207.164 109.517 206.86 109.909 206.652C110.301 206.436 110.745 206.328 111.241 206.328ZM118.511 206.352C119.127 206.352 119.663 206.496 120.119 206.784C120.575 207.072 120.903 207.436 121.103 207.876V206.448H121.943V213.168C121.943 213.768 121.811 214.3 121.547 214.764C121.291 215.228 120.931 215.584 120.467 215.832C120.003 216.088 119.475 216.216 118.883 216.216C118.043 216.216 117.343 216.016 116.783 215.616C116.231 215.216 115.887 214.672 115.751 213.984H116.579C116.723 214.44 116.995 214.804 117.395 215.076C117.803 215.348 118.299 215.484 118.883 215.484C119.307 215.484 119.687 215.392 120.023 215.208C120.359 215.032 120.623 214.768 120.815 214.416C121.007 214.064 121.103 213.648 121.103 213.168V211.548C120.895 211.996 120.563 212.368 120.107 212.664C119.659 212.952 119.127 213.096 118.511 213.096C117.911 213.096 117.371 212.956 116.891 212.676C116.419 212.396 116.047 212 115.775 211.488C115.511 210.976 115.379 210.384 115.379 209.712C115.379 209.04 115.511 208.452 115.775 207.948C116.047 207.436 116.419 207.044 116.891 206.772C117.371 206.492 117.911 206.352 118.511 206.352ZM121.103 209.724C121.103 209.196 120.995 208.732 120.779 208.332C120.563 207.932 120.267 207.624 119.891 207.408C119.523 207.192 119.115 207.084 118.667 207.084C118.203 207.084 117.787 207.188 117.419 207.396C117.051 207.604 116.759 207.908 116.543 208.308C116.335 208.7 116.231 209.168 116.231 209.712C116.231 210.248 116.335 210.72 116.543 211.128C116.759 211.528 117.051 211.836 117.419 212.052C117.787 212.26 118.203 212.364 118.667 212.364C119.115 212.364 119.523 212.256 119.891 212.04C120.267 211.824 120.563 211.516 120.779 211.116C120.995 210.716 121.103 210.252 121.103 209.724ZM124.28 205.212C124.112 205.212 123.968 205.152 123.848 205.032C123.728 204.912 123.668 204.764 123.668 204.588C123.668 204.412 123.728 204.268 123.848 204.156C123.968 204.036 124.112 203.976 124.28 203.976C124.448 203.976 124.592 204.036 124.712 204.156C124.832 204.268 124.892 204.412 124.892 204.588C124.892 204.764 124.832 204.912 124.712 205.032C124.592 205.152 124.448 205.212 124.28 205.212ZM124.7 206.448V213H123.86V206.448H124.7ZM129.675 206.328C130.459 206.328 131.099 206.572 131.595 207.06C132.091 207.54 132.339 208.24 132.339 209.16V213H131.511V209.256C131.511 208.544 131.331 208 130.971 207.624C130.619 207.248 130.135 207.06 129.519 207.06C128.887 207.06 128.383 207.26 128.007 207.66C127.631 208.06 127.443 208.648 127.443 209.424V213H126.603V206.448H127.443V207.564C127.651 207.164 127.951 206.86 128.343 206.652C128.735 206.436 129.179 206.328 129.675 206.328ZM140.124 209.388C140.124 209.676 140.116 209.896 140.1 210.048H134.664C134.688 210.544 134.808 210.968 135.024 211.32C135.24 211.672 135.524 211.94 135.876 212.124C136.228 212.3 136.612 212.388 137.028 212.388C137.572 212.388 138.028 212.256 138.396 211.992C138.772 211.728 139.02 211.372 139.14 210.924H140.028C139.868 211.564 139.524 212.088 138.996 212.496C138.476 212.896 137.82 213.096 137.028 213.096C136.412 213.096 135.86 212.96 135.372 212.688C134.884 212.408 134.5 212.016 134.22 211.512C133.948 211 133.812 210.404 133.812 209.724C133.812 209.044 133.948 208.448 134.22 207.936C134.492 207.424 134.872 207.032 135.36 206.76C135.848 206.488 136.404 206.352 137.028 206.352C137.652 206.352 138.196 206.488 138.66 206.76C139.132 207.032 139.492 207.4 139.74 207.864C139.996 208.32 140.124 208.828 140.124 209.388ZM139.272 209.364C139.28 208.876 139.18 208.46 138.972 208.116C138.772 207.772 138.496 207.512 138.144 207.336C137.792 207.16 137.408 207.072 136.992 207.072C136.368 207.072 135.836 207.272 135.396 207.672C134.956 208.072 134.712 208.636 134.664 209.364H139.272ZM145.794 207.612C145.978 207.204 146.258 206.888 146.634 206.664C147.018 206.44 147.486 206.328 148.038 206.328V207.204H147.81C147.202 207.204 146.714 207.368 146.346 207.696C145.978 208.024 145.794 208.572 145.794 209.34V213H144.954V206.448H145.794V207.612ZM148.918 209.712C148.918 209.04 149.05 208.452 149.314 207.948C149.586 207.436 149.958 207.044 150.43 206.772C150.91 206.492 151.45 206.352 152.05 206.352C152.674 206.352 153.21 206.496 153.658 206.784C154.114 207.072 154.442 207.44 154.642 207.888V206.448H155.482V213H154.642V211.548C154.434 211.996 154.102 212.368 153.646 212.664C153.198 212.952 152.662 213.096 152.038 213.096C151.446 213.096 150.91 212.956 150.43 212.676C149.958 212.396 149.586 212 149.314 211.488C149.05 210.976 148.918 210.384 148.918 209.712ZM154.642 209.724C154.642 209.196 154.534 208.732 154.318 208.332C154.102 207.932 153.806 207.624 153.43 207.408C153.062 207.192 152.654 207.084 152.206 207.084C151.742 207.084 151.326 207.188 150.958 207.396C150.59 207.604 150.298 207.908 150.082 208.308C149.874 208.7 149.77 209.168 149.77 209.712C149.77 210.248 149.874 210.72 150.082 211.128C150.298 211.528 150.59 211.836 150.958 212.052C151.326 212.26 151.742 212.364 152.206 212.364C152.654 212.364 153.062 212.256 153.43 212.04C153.806 211.824 154.102 211.516 154.318 211.116C154.534 210.716 154.642 210.252 154.642 209.724ZM160.471 206.328C161.255 206.328 161.895 206.572 162.391 207.06C162.887 207.54 163.135 208.24 163.135 209.16V213H162.307V209.256C162.307 208.544 162.127 208 161.767 207.624C161.415 207.248 160.931 207.06 160.315 207.06C159.683 207.06 159.179 207.26 158.803 207.66C158.427 208.06 158.239 208.648 158.239 209.424V213H157.399V206.448H158.239V207.564C158.447 207.164 158.747 206.86 159.139 206.652C159.531 206.436 159.975 206.328 160.471 206.328ZM168.533 213L165.833 210.06V213H164.993V204.12H165.833V209.376L168.473 206.448H169.649L166.541 209.712L169.673 213H168.533ZM171.179 205.212C171.011 205.212 170.867 205.152 170.747 205.032C170.627 204.912 170.567 204.764 170.567 204.588C170.567 204.412 170.627 204.268 170.747 204.156C170.867 204.036 171.011 203.976 171.179 203.976C171.347 203.976 171.491 204.036 171.611 204.156C171.731 204.268 171.791 204.412 171.791 204.588C171.791 204.764 171.731 204.912 171.611 205.032C171.491 205.152 171.347 205.212 171.179 205.212ZM171.599 206.448V213H170.759V206.448H171.599ZM176.573 206.328C177.357 206.328 177.997 206.572 178.493 207.06C178.989 207.54 179.237 208.24 179.237 209.16V213H178.409V209.256C178.409 208.544 178.229 208 177.869 207.624C177.517 207.248 177.033 207.06 176.417 207.06C175.785 207.06 175.281 207.26 174.905 207.66C174.529 208.06 174.341 208.648 174.341 209.424V213H173.501V206.448H174.341V207.564C174.549 207.164 174.849 206.86 175.241 206.652C175.633 206.436 176.077 206.328 176.573 206.328ZM183.843 206.352C184.459 206.352 184.995 206.496 185.451 206.784C185.907 207.072 186.235 207.436 186.435 207.876V206.448H187.275V213.168C187.275 213.768 187.143 214.3 186.879 214.764C186.623 215.228 186.263 215.584 185.799 215.832C185.335 216.088 184.807 216.216 184.215 216.216C183.375 216.216 182.675 216.016 182.115 215.616C181.563 215.216 181.219 214.672 181.083 213.984H181.911C182.055 214.44 182.327 214.804 182.727 215.076C183.135 215.348 183.631 215.484 184.215 215.484C184.639 215.484 185.019 215.392 185.355 215.208C185.691 215.032 185.955 214.768 186.147 214.416C186.339 214.064 186.435 213.648 186.435 213.168V211.548C186.227 211.996 185.895 212.368 185.439 212.664C184.991 212.952 184.459 213.096 183.843 213.096C183.243 213.096 182.703 212.956 182.223 212.676C181.751 212.396 181.379 212 181.107 211.488C180.843 210.976 180.711 210.384 180.711 209.712C180.711 209.04 180.843 208.452 181.107 207.948C181.379 207.436 181.751 207.044 182.223 206.772C182.703 206.492 183.243 206.352 183.843 206.352ZM186.435 209.724C186.435 209.196 186.327 208.732 186.111 208.332C185.895 207.932 185.599 207.624 185.223 207.408C184.855 207.192 184.447 207.084 183.999 207.084C183.535 207.084 183.119 207.188 182.751 207.396C182.383 207.604 182.091 207.908 181.875 208.308C181.667 208.7 181.563 209.168 181.563 209.712C181.563 210.248 181.667 210.72 181.875 211.128C182.091 211.528 182.383 211.836 182.751 212.052C183.119 212.26 183.535 212.364 183.999 212.364C184.447 212.364 184.855 212.256 185.223 212.04C185.599 211.824 185.895 211.516 186.111 211.116C186.327 210.716 186.435 210.252 186.435 209.724ZM191.448 213.096C190.696 213.096 190.08 212.924 189.6 212.58C189.128 212.228 188.864 211.752 188.808 211.152H189.672C189.712 211.52 189.884 211.82 190.188 212.052C190.5 212.276 190.916 212.388 191.436 212.388C191.892 212.388 192.248 212.28 192.504 212.064C192.768 211.848 192.9 211.58 192.9 211.26C192.9 211.036 192.828 210.852 192.684 210.708C192.54 210.564 192.356 210.452 192.132 210.372C191.916 210.284 191.62 210.192 191.244 210.096C190.756 209.968 190.36 209.84 190.056 209.712C189.752 209.584 189.492 209.396 189.276 209.148C189.068 208.892 188.964 208.552 188.964 208.128C188.964 207.808 189.06 207.512 189.252 207.24C189.444 206.968 189.716 206.752 190.068 206.592C190.42 206.432 190.82 206.352 191.268 206.352C191.972 206.352 192.54 206.532 192.972 206.892C193.404 207.244 193.636 207.732 193.668 208.356H192.828C192.804 207.972 192.652 207.664 192.372 207.432C192.1 207.192 191.724 207.072 191.244 207.072C190.82 207.072 190.476 207.172 190.212 207.372C189.948 207.572 189.816 207.82 189.816 208.116C189.816 208.372 189.892 208.584 190.044 208.752C190.204 208.912 190.4 209.04 190.632 209.136C190.864 209.224 191.176 209.324 191.568 209.436C192.04 209.564 192.416 209.688 192.696 209.808C192.976 209.928 193.216 210.104 193.416 210.336C193.616 210.568 193.72 210.876 193.728 211.26C193.728 211.612 193.632 211.928 193.44 212.208C193.248 212.48 192.98 212.696 192.636 212.856C192.292 213.016 191.896 213.096 191.448 213.096ZM195.454 213.06C195.278 213.06 195.13 213 195.01 212.88C194.898 212.76 194.842 212.612 194.842 212.436C194.842 212.26 194.898 212.116 195.01 212.004C195.13 211.884 195.278 211.824 195.454 211.824C195.622 211.824 195.762 211.884 195.874 212.004C195.994 212.116 196.054 212.26 196.054 212.436C196.054 212.612 195.994 212.76 195.874 212.88C195.762 213 195.622 213.06 195.454 213.06Z" fill="black"/>
<g clip-path="url(#clip0_2_255)">
<path d="M130.4 100C158.014 100 180.4 77.6142 180.4 50C180.4 22.3858 158.014 0 130.4 0C102.786 0 80.3999 22.3858 80.3999 50C80.3999 77.6142 102.786 100 130.4 100Z" fill="#B00000" fill-opacity="0.15"/>
<path d="M116.3 23.8868C122.584 20.5497 129.877 19.6398 136.789 21.3301C143.701 23.0205 149.75 27.1933 153.786 33.0542C157.821 38.9151 159.561 46.0552 158.674 53.1155C157.786 60.1757 154.334 66.6634 148.975 71.3439C143.615 76.0243 136.721 78.5707 129.606 78.4985C122.49 78.4263 115.65 75.7406 110.386 70.9524C105.122 66.1642 101.802 59.6078 101.059 52.531C100.315 45.4541 102.199 38.3509 106.353 32.573" stroke="#B00000" stroke-width="3" stroke-linecap="round" stroke-linejoin="round"/>
<path d="M114.878 24.1659L116.822 19.9624" stroke="#B00000" stroke-width="2" stroke-linecap="round" stroke-linejoin="round"/>
<path d="M114.876 23.874L118.989 25.5302" stroke="#B00000" stroke-width="2" stroke-linecap="round" stroke-linejoin="round"/>
<path d="M129.9 72.1268C142.396 72.1268 152.527 61.9964 152.527 49.4999C152.527 37.0035 142.396 26.873 129.9 26.873C117.403 26.873 107.273 37.0035 107.273 49.4999C107.273 61.9964 117.403 72.1268 129.9 72.1268Z" stroke="#B00000" stroke-width="3"/>
<path d="M129.9 30.4521H129.9C129.199 30.4521 128.63 31.0207 128.63 31.722V33.4151C128.63 34.1164 129.199 34.6849 129.9 34.6849H129.9C130.601 34.6849 131.17 34.1164 131.17 33.4151V31.722C131.17 31.0207 130.601 30.4521 129.9 30.4521Z" fill="#B00000"/>
<path d="M129.9 64.3145H129.9C129.199 64.3145 128.631 64.883 128.631 65.5843V67.2774C128.631 67.9787 129.199 68.5472 129.9 68.5472H129.9C130.602 68.5472 131.17 67.9787 131.17 67.2774V65.5843C131.17 64.883 130.602 64.3145 129.9 64.3145Z" fill="#B00000"/>
<path d="M148.947 49.4998V49.4998C148.947 48.7985 148.379 48.23 147.677 48.23H145.984C145.283 48.23 144.715 48.7985 144.715 49.4998V49.4998C144.715 50.2011 145.283 50.7696 145.984 50.7696H147.677C148.379 50.7696 148.947 50.2011 148.947 49.4998Z" fill="#B00000"/>
<path d="M115.085 49.4998V49.4998C115.085 48.7985 114.517 48.23 113.815 48.23H112.122C111.421 48.23 110.852 48.7985 110.852 49.4998V49.4998C110.852 50.2011 111.421 50.7696 112.122 50.7696H113.815C114.517 50.7696 115.085 50.2011 115.085 49.4998Z" fill="#B00000"/>
<path d="M123.301 49.6328L127.981 54.1822L137.7 44.7361" stroke="#B00000" stroke-width="3" stroke-linecap="round" stroke-linejoin="round"/>
</g>
<defs>
<clipPath id="clip0_2_255">
<rect width="101" height="100" fill="white" transform="translate(80)"/>
</clipPath>
</defs>
</svg>
